/* XPM */
static char *_e16629f56d8496ab87575b828b30010WT87CFQYtFFf5Oa7[] = {
/* columns rows colors chars-per-pixel */
"50 50 6 1 ",
"  c None",
". c black",
"X c #FFC107",
"o c #FFEB3B",
"O c #FFF9CF",
"+ c white",
/* pixels */
"                                                  ",
"                                                  ",
"                                                  ",
"                                                  ",
"                                                  ",
"                                                  ",
"                                                  ",
"                                                  ",
"                                                  ",
"                              O                   ",
"                             OOO                  ",
"                      ..... OO+OO                 ",
"                     ..ooo.OO+++OO                ",
"                    .oooooOO++O++OO               ",
"                   .oooooooOO+++OO                ",
"                   .ooooooooOO+OO                 ",
"                  .ooooXXXoooOOO                  ",
"                  .ooXXXoXXXooO                   ",
"                  .ooXoooooXoo.                   ",
"                 .oooXoooooXooo.                  ",
"                 .ooXoooXoooXoo.                  ",
"                 .ooXooXXXooXoo.                  ",
"                 .ooXoXoXoooXoo.                  ",
"                 .ooXoXXXXooXoo.                  ",
"                 .ooXoooXoXoXoo.                  ",
"                 .ooXoXXXXooXoo.                  ",
"                 .ooXoooXoooXoo.                  ",
"                 .oooXoooooXooo.                  ",
"                  .ooXoooooXoo.                   ",
"                  .ooXXXoXXXoo.                   ",
"                  .ooooXXXoooo.                   ",
"                   .ooooooooo.                    ",
"                   .ooooooooo.                    ",
"                    .ooooooo.                     ",
"                    ...ooo...                     ",
"                      .....                       ",
"                                                  ",
"                                                  ",
"                                                  ",
"                                                  ",
"                                                  ",
"                                                  ",
"                                                  ",
"                                                  ",
"                                                  ",
"                                                  ",
"                                                  ",
"                                                  ",
"                                                  ",
"                                                  "
};
