/* XPM */
static char *_ae962fbe3744951d9764b8a59d0d70bwNE5ZnTkGDNyAvmS[] = {
/* columns rows colors chars-per-pixel */
"50 50 4 1 ",
"  c None",
". c black",
"X c #FFC107",
"o c #FFEB3B",
/* pixels */
"                                                  ",
"                                                  ",
"                                                  ",
"                                                  ",
"                                                  ",
"                                                  ",
"                                                  ",
"                                                  ",
"                                                  ",
"                                                  ",
"                                                  ",
"                       ...                        ",
"                      ..o..                       ",
"                      .ooo.                       ",
"                      .ooo.                       ",
"                      .ooo.                       ",
"                      .ooo.                       ",
"                     .ooXoo.                      ",
"                     .oXoXo.                      ",
"                     .oXoXo.                      ",
"                     .oXoXo.                      ",
"                     .oXoXo.                      ",
"                     .oXoXo.                      ",
"                     .oXoXo.                      ",
"                     .oXoXo.                      ",
"                     .oXoXo.                      ",
"                     .oXoXo.                      ",
"                     .oXoXo.                      ",
"                     .oXoXo.                      ",
"                     .ooXoo.                      ",
"                      .ooo.                       ",
"                      .ooo.                       ",
"                      .ooo.                       ",
"                      .ooo.                       ",
"                      ..o..                       ",
"                       ..                         ",
"                                                  ",
"                                                  ",
"                                                  ",
"                                                  ",
"                                                  ",
"                                                  ",
"                                                  ",
"                                                  ",
"                                                  ",
"                                                  ",
"                                                  ",
"                                                  ",
"                                                  ",
"                                                  "
};
