/* XPM */
static char *b9f51bc529d7463df5420a1c6e85370eS7ljHJslTwzs5RBI[] = {
/* columns rows colors chars-per-pixel */
"50 50 4 1 ",
"  c None",
". c black",
"X c #FFC107",
"o c #FFEB3B",
/* pixels */
"                                                  ",
"                                                  ",
"                                                  ",
"                                                  ",
"                                                  ",
"                                                  ",
"                                                  ",
"                                                  ",
"                                                  ",
"                                                  ",
"                                                  ",
"                      .......                     ",
"                   ...ooooooo...                  ",
"                  .ooooooooooooo.                 ",
"                ..ooooooooooooooo..               ",
"               .ooooooooooooooooooo.              ",
"              .ooooooooooooooooooooo.             ",
"              .oooooooXXXXXXXooooooo.             ",
"             .ooooooXXoooooooXXoooooo.            ",
"             .oooooXoooooooooooXooooo.            ",
"            .oooooXoooooooooooooXooooo.           ",
"            .ooooXooooooXXXooooooXoooo.           ",
"            .ooooXoooooXoXoooooooXoooo.           ",
"            .ooooXoooooXXXXooooooXoooo.           ",
"            .ooooXoooooooXoXoooooXoooo.           ",
"            .ooooXoooooXXXXooooooXoooo.           ",
"            .oooooXoooooooooooooXooooo.           ",
"             .oooooXoooooooooooXooooo.            ",
"             .ooooooXXoooooooXXoooooo.            ",
"              .oooooooXXXXXXXooooooo.             ",
"              .ooooooooooooooooooooo.             ",
"               .ooooooooooooooooooo.              ",
"                ..ooooooooooooooo..               ",
"                  .ooooooooooooo.                 ",
"                   ...ooooooo...                  ",
"                      .......                     ",
"                                                  ",
"                                                  ",
"                                                  ",
"                                                  ",
"                                                  ",
"                                                  ",
"                                                  ",
"                                                  ",
"                                                  ",
"                                                  ",
"                                                  ",
"                                                  ",
"                                                  ",
"                                                  "
};
