/* XPM */
static char *_d8585cc1c0743eeb12e2db2d5ca279f37qtKZDcK5yO0sAJ[] = {
/* columns rows colors chars-per-pixel */
"50 50 5 1 ",
"  c None",
". c black",
"X c #4CAF50",
"o c #009688",
"O c white",
/* pixels */
"                                                  ",
"                                                  ",
"                                                  ",
"                                                  ",
"                                                  ",
"                  ...                       ..    ",
"                 .ooo.                     .oo.   ",
"                .ooooo....             ....oooo.  ",
"                .ooooo.  ...        ....  .oooo.  ",
"                 .ooo.    ...      ...     .oo.   ",
"                  ...       ...  ...        ..    ",
"                             .. ...               ",
"                          ..........              ",
"                        ...XXXXXXXX...            ",
"                      ..XXXXXXXXXXXXXX..          ",
"                   ...XXXXXXXXXXXXXXXXXX..        ",
"                  ..XXXXXXXXXXXXXXXXXXXXX...      ",
"                ...XXXXXXXXXXXX..XXXXX..XXX..     ",
"               ..XXXXXXXXXXXXX..O.XXX..O.XXX..    ",
"               .XXXXXXXXXXXXXX.O..XXX.O..XXXX.    ",
"               .XXXXXXXXXXXXXXX..XXXXX..XXXXX..   ",
"              ..XXXXXXXXXXXXXXXXXXXXXXXXXXXXXX.   ",
"              .XXXXXXXXXXXXXXXXXXXXXXXXXXXXXXX..  ",
"              .XXXXXXXXXXXXXXXXXXXXXXXXXXXXXXXX.  ",
"              .XXXXXXXXXXXXXXXXXXXXXXXXXXXXXXXX.  ",
"              .XXXXXXXXXXXXXXXXXXXXXXXXXXXXXXXX.  ",
"              .XXXXXXXXXXXXXXXXXXXXXXXXXXXXXXXX.. ",
"              .XXXXXXXXXXXXXXXXXXXXXXXXXXXXXXXX.. ",
"              .XXXXXXXXXXXXXXXXXXXXXXXXXXXXXXXXX. ",
"              .XXXXXXXXXXXXXXXXXXXXXXXXXXXXXXXXX. ",
"              ...XXXXXXXXXXXXXXXXXXXXXXXXXX...... ",
"                .......XXXXXXXXXXXXXXXX.....      ",
"                      ..................          ",
"                                                  ",
"                                                  ",
"                                                  ",
"                    ................              ",
"            .................................     ",
"         ......................................   ",
"         ......................................   ",
"          ......................................  ",
"              ..................................  ",
"                ................................  ",
"                   .........    ................  ",
"                                                  ",
"                                                  ",
"                                                  ",
"                                                  ",
"                                                  ",
"                                                  "
};
