/* XPM */
static char *b8b14e30313b495ca3afd65684cdafabXuV3fazfKOFS3lWN[] = {
/* columns rows colors chars-per-pixel */
"50 50 151 2 ",
"   c #000000",
".  c #000B00",
"X  c #0A0B00",
"o  c #01020B",
"O  c #070D0F",
"+  c #001300",
"@  c #001D00",
"#  c #08190D",
"$  c #131C00",
"%  c #000010",
"&  c #0A0F12",
"*  c #000B1E",
"=  c #0B1215",
"-  c #0F161A",
";  c #001A19",
":  c #111A1D",
">  c #022402",
",  c #012B00",
"<  c #0A2C02",
"1  c #072A0A",
"2  c #132300",
"3  c #142E00",
"4  c #14240D",
"5  c #132D0B",
"6  c #023400",
"7  c #093302",
"8  c #013B00",
"9  c #0A3D05",
"0  c #0F350D",
"q  c #153E01",
"w  c #11370A",
"e  c #0A2A12",
"r  c #192511",
"t  c #132B17",
"y  c #1B2C14",
"u  c #1E2F1E",
"i  c #0B3112",
"p  c #0D3C16",
"a  c #173417",
"s  c #1F3315",
"d  c #143E11",
"f  c #12311B",
"g  c #1D341C",
"h  c #143D1C",
"j  c #001C24",
"k  c #031E2E",
"l  c #141C21",
"z  c #05222B",
"x  c #0C232E",
"c  c #0B282F",
"v  c #172225",
"b  c #182427",
"n  c #182D27",
"m  c #12252F",
"M  c #1B232A",
"N  c #1C292C",
"B  c #0F3928",
"V  c #143124",
"C  c #1B3C24",
"Z  c #1D302D",
"A  c #1D392A",
"S  c #042331",
"D  c #0A2533",
"F  c #0E2A34",
"G  c #142730",
"H  c #142B36",
"J  c #182D37",
"K  c #162D3A",
"L  c #182E3A",
"P  c #1A3137",
"I  c #16303D",
"U  c #1A313D",
"Y  c #202E25",
"T  c #233223",
"R  c #24342B",
"E  c #243B2D",
"W  c #283B2E",
"Q  c #2A3D33",
"!  c #243C39",
"~  c #2B3D3C",
"^  c #004400",
"/  c #0B460E",
"(  c #0D4115",
")  c #13421D",
"_  c #1A4225",
"`  c #1C4429",
"'  c #1D482C",
"]  c #264534",
"[  c #2D4237",
"{  c #254D36",
"}  c #29473B",
"|  c #264E39",
" . c #2D4A3D",
".. c #31443C",
"X. c #173340",
"o. c #1B3440",
"O. c #2E3E45",
"+. c #2E4B44",
"@. c #344741",
"#. c #32434A",
"$. c #364A4D",
"%. c #36544C",
"&. c #375651",
"*. c #3B5056",
"=. c #445B5F",
"-. c #40625E",
";. c #415760",
":. c #435A62",
">. c #455E6B",
",. c #495F6A",
"<. c #456564",
"1. c #4A6267",
"2. c #476867",
"3. c #47606D",
"4. c #4A636C",
"5. c #476868",
"6. c #4A6A6B",
"7. c #4E6571",
"8. c #4F6870",
"9. c #516A76",
"0. c #546D7A",
"q. c #56717D",
"w. c #58727F",
"e. c #587380",
"r. c #5A7582",
"t. c #5A7683",
"y. c #5B7784",
"u. c #5C7785",
"i. c #5B7884",
"p. c #5C7985",
"a. c #5C7886",
"s. c #5D7B87",
"d. c #5E7988",
"f. c #5D7A88",
"g. c #5E7A88",
"h. c #5E7B88",
"j. c #5E7B89",
"k. c #5F7C8A",
"l. c #5F7D8A",
"z. c #607C8A",
"x. c #607D8B",
"c. c #617E8B",
"v. c #607D8D",
"b. c #617E8D",
"n. c #627F8E",
"m. c #637F8F",
"M. c #62808E",
"N. c #64818F",
"B. c #638090",
"V. c #658391",
"C. c #678495",
/* pixels */
"U L H L L L L L L J J P U H c z H L L L J P L L L L L L J L H z H J L L L L P H S S D S H L L K I x ",
"g.r.0.b.a.g.g.a.s.a.s.a.x.:.  ! g.g.a.a.a.x.g.g.g.g.x.a.a.w.:.  >.x.a.g.g.g.g.q.7.q.9.7.e.g.a.g.x.w.",
"b.k.4.e.M.x.b.b.M.x.x.x...Y +  .w.b.x.b.x.b.x.x.b.x.b.b.z.w.>.  3.V.x.b.k.b.k.| { 6. .@.k.b.b.b.x.M.",
"x.x.u.9.e.M.k.x.x.x.x.a.[ 7 h 8 -.M.k.k.x.x.x.x.x.b.a.r.0.9.>.  3.B.g.x.k.b.a.8 , 8 w ~ g.b.l.l.x.x.",
"x.x.b.b.4.q.b.x.x.x.x.k.a._ 7 f 3 6.M.x.x.x.x.x.g.9.7.r.w.a.7.  >.V.g.x.x.x.x.4.%.6 } g.g.g.M.s.x.x.",
"x.x.x.x.b.7.a.b.x.x.x.M.k.W g R T 4.M.x.x.x.b.b.0.0.M.B.9.b.4.  4.M.b.x.x.x.x.C.5., ] <.6 5.V.k.x.x.",
"x.x.x.x.b.x.0.z.M.k.k.x.s.` 6 *.k.a.b.x.x.x.x.x.b.b.k.b.0.k.3.  3.M.x.x.x.x.x.b.8.< ~ :., 2.B.k.x.x.",
"x.x.x.x.x.b.x.0.k.x.x.k.a.` 9 C / <.M.x.x.x.x.x.b.l.k.B.9.g.7.  4.M.k.x.x.x.M.a.{ 9 y Q a.k.k.k.x.x.",
"x.x.x.x.x.x.M.a.0.M.x.x.x.E r > 8 C x.x.x.x.x.x.k.b.b.w.4.V.4.  >.V.g.b.k.k.b.a.' ) E ..k.b.x.x.x.x.",
"x.x.x.x.x.x.x.x.w.r.x.x.a...R v . : a.M.b.x.x.x.x.k.b.0.a.V.>.  3.M.k.b.k.b.x.x.a.k.g.k.x.x.x.x.x.x.",
"x.x.x.x.x.x.x.b.x.0.M.x.x.g.x.r.- - y.a.a.x.x.x.x.x.b.0.r.V.>.  3.V.k.x.x.x.x.x.b.x.x.b.x.x.x.x.x.x.",
"x.x.x.x.x.x.x.g.x.0.a.x.x.x.x.x.-   - & N x.x.x.x.g.M.q.a.V.3.  4.M.k.x.x.x.x.x.x.x.x.x.x.x.x.x.x.x.",
"x.x.x.x.x.x.x.x.M.6.0.b.x.x.x.u.N - : = N g.b.x.x.b.g.7.g.V.3.  >.b.x.x.x.x.x.x.x.x.x.x.b.k.x.x.x.x.",
"x.x.x.x.x.x.x.z.0.r.x.x.x.x.x.x.g.g.g.g.a.x.x.x.g.b.0.q.b.B.3.  4.M.g.b.x.x.x.x.x.x.x.x.k.k.x.x.x.x.",
"x.b.x.b.x.x.x.0.z.m.b.b.x.M.x.z.g.b.b.b.M.x.b.b.b.b.0.q.k.V.3.  4.N.x.x.x.x.x.x.x.b.b.x.b.b.b.k.x.x.",
"z.a.z.a.z.x.r.9.b.u.z.g.a.a.M.6.6 5.k.g.a.k.g.g.g.g.a.7.9.B.>.  ,.x.a.x.a.x.x.a.x.a.z.x.g.g.k.g.x.a.",
"I L I U I U m x K K L K I H K B ^ ` ~ U H L H H H H K o.G K F j D U I K I J K I I K K K K I L H L K ",
"H J H H H H H I K K K K K I k V C 5 X n X.P K X.X.X.K X.H H X.X.L J H J K K K J K H H K H L K K H L ",
"g.k.x.a.a.g.g.g.k.g.a.k.s.a.K Z $ @.,.0.x.a.u.x.g.g.g.g.9.g.g.g.x.a.a.x.a.g.g.k.g.k.g.k.g.g.x.g.g.k.",
"k.k.b.x.b.b.k.M.k.l.b.b.k.k.K P :.w.C.x.M.x.x.x.k.k.B.r.y.b.l.b.x.b.x.b.x.b.b.b.b.M.k.k.x.b.b.b.k.k.",
"B.k.M.l.x.x.x.x.b.k.M.b.k.k.K K b.V.x.x.x.x.x.x.b.b.e.4.g.b.b.b.x.x.x.x.x.x.x.x.k.k.k.k.x.k.b.a.b.M.",
"6.k.l.k.x.x.x.x.k.b.b.k.k.k.K H u.x.x.x.x.x.x.x.x.r.r.l.0.0.e.b.x.x.x.x.x.x.x.x.k.b.k.k.b.V.x.g.w.2.",
"9 a.b.b.x.x.x.x.b.k.k.l.M.k.H K k.b.x.x.x.x.x.b.u.0.m.l.l.g.0.9.a.x.x.x.x.x.x.x.k.x.N.M.r.4.#.M +.6 ",
"+ 6.V.k.x.x.x.x.k.b.l.b.k.a.I H g.b.x.x.x.x.x.b.q.a.b.l.b.b.M.e.7.a.b.x.x.x.b.k.M.a.4.#.i >     . e ",
"7 +.w.b.x.x.x.x.x.x.x.x.b.k.K K g.x.x.x.x.x.x.x.9.k.x.x.x.x.x.M.0.g.b.x.x.x.g.M.q.&     9 ( t , > 1 ",
"C   O.x.x.x.x.x.x.x.x.x.b.a.K L a.x.x.x.x.x.x.x.7.a.x.k.x.x.x.b.w.r.M.x.x.x.b.b.O.  C p 0 4 R R e < ",
", > = a.x.x.x.x.x.x.x.x.b.a.I J x.x.x.x.x.x.x.b.r.7.b.b.x.x.x.x.k.7.x.x.x.k.M.$.    < 8 E g 4.M.<.d ",
"V > b x.x.x.x.x.x.x.x.x.x.k.I J x.b.x.x.x.x.x.k.M.9.w.b.x.x.x.x.x.a.x.x.k.M.9.    #.4.5.g.g.g.b.g.g.",
"a.b   9.b.x.x.x.k.b.k.x.k.g.K K a.x.x.x.x.x.x.x.x.a.0.b.x.x.x.x.x.b.x.k.M.0.    = k.V.b.b.b.b.b.b.b.",
"M.<.6 ] b.x.a.x.k.k.k.k.b.g.I H a.x.x.x.g.x.x.k.x.g.7.b.x.x.g.x.k.k.k.k.x.#.  o 9.b.g.g.k.g.g.k.g.k.",
"C.6.8 ' =.Q ..M.M.M.M.M.B.M.K H b.V.M.M.M.V.V.B.M.V.0.a.V.B.M.M.V.B.M.V.x.:   4.C.b.V.V.B.V.V.V.V.M.",
"7.&.q h 8 w g <.>.>.>.3.3.>.H L >.4.>.4.>.3.3.3.3.4.>.>.3.>.4.4.,.3.3.,.>.: & >.>.>.>.>.3.,.>.>.>.4.",
"o o     > < p 8         o * % *                                                 * @ > 2             ",
">.3.3.>.3.$., a R v       G 3.4.,.4.4.>.7.>.>.>.4.>.3.3.,.4.3.3.3.3.>.>.4.3.3.>.I p ( y *.4.3.>.>.>.",
"V.V.b.V.V.q.1.$.  =.7.#.    0.C.b.M.N.b.b.V.V.V.M.V.B.V.M.M.M.M.V.M.V.M.M.M.N.x.U 5 < 9.b.V.B.V.V.M.",
"g.g.k.k.x.b.V.w.=.q.V.k.-     0.m.x.x.x.g.l.g.k.k.k.k.g.x.x.x.k.x.g.x.b.x.x.x.a.U n 4.b.x.k.k.k.k.k.",
"b.l.x.x.x.x.g.b.V.b.k.b.9.=   O.x.x.x.x.x.x.x.x.b.b.k.x.x.x.x.b.x.b.x.a.x.x.x.x.L L M.x.x.x.x.x.x.x.",
"b.b.x.x.x.x.x.x.k.x.x.k.V.:.    :.b.x.x.x.x.x.x.k.b.b.b.x.x.x.a.a.g.0.w.b.x.x.g.K I a.b.x.x.x.x.x.x.",
"g.l.b.x.x.x.x.x.k.x.x.x.x.b.O.  b x.b.x.x.x.x.x.g.w.a.k.b.g.0.0.0.0.r.M.x.x.x.g.H I g.b.x.x.x.x.x.x.",
"b.b.z.x.x.x.x.x.x.x.k.b.k.B.0.O N a.x.x.x.x.x.x.k.0.0.0.y.q.a.B.b.M.x.x.x.x.x.x.H I a.b.x.x.x.b.M.x.",
"i.x.m.x.x.x.x.x.x.x.x.x.x.x.b.a.a.x.x.x.x.x.x.x.x.x.N.x.r.4.w.b.g.x.b.z.x.x.x.k.H K g.k.M.i.k.a.0.7.",
"0.9.0.0.x.M.x.x.x.x.x.x.x.x.x.M.x.x.x.x.z.x.x.x.x.x.x.x.b.r.9.M.x.b.b.b.k.k.M.k.H H k.M.k.a.5.7.q.x.",
"x.a.x.0.9.a.x.x.x.x.x.x.x.x.x.k.x.z.M.V.x.x.x.x.x.x.x.x.x.x.0.x.b.x.q.5.r.k.x.a.I H k.k.z.b.8.9.V.x.",
"x.x.b.b.4.w.x.x.x.x.x.x.x.b.b.5.2 9.w.=.w.x.x.x.x.x.x.x.x.b.r.w.e.0.0.a.M.x.k.k.K H k.k.b.b.z.0.g.x.",
"x.x.M.w.0.b.x.x.x.x.x.x.x.x.V.9.  4.4., 8 1.m.x.x.x.x.x.x.x.a.4.r.x.b.x.k.x.M.g.J I g.x.l.g.b.9.r.b.",
"x.x.x.a.x.x.x.x.x.x.x.x.z.a.5.-.R = : ) f 2 4.V.x.x.x.x.x.x.M.0.z.b.x.x.b.k.x.k.J I g.b.b.b.b.0.g.b.",
"x.x.x.x.x.x.x.x.x.x.x.M.1.s 8 6 u     , 8 s 1.b.x.x.x.x.x.x.N.t.w.b.x.x.k.b.k.g.K H g.x.x.b.b.r.9.b.",
"x.N.x.x.x.N.x.x.M.x.x.b.9.y e #   l N <.5.x.x.x.x.m.x.x.b.x.x.a.0.M.x.x.b.b.B.g.I H x.b.x.b.b.M.q.e.",
"x.a.a.z.a.z.a.g.g.g.g.a.6.+.@ i A r.a.b.b.x.a.s.a.x.a.a.z.a.a.t.4.a.a.a.x.a.0.7.H D 0.g.g.g.g.g.u.9.",
"J P L L L L L L L L L L ; j x D F U P J H I L L L L L P I L L L x L L L P L D S F D H K K L L L L L "
};
