/* XPM */
static char *ca5d2af3377e48bef7f479748a2e502d5f3G1Wt99luDhDvQ[] = {
/* columns rows colors chars-per-pixel */
"50 50 206 2 ",
"   c None",
".  c #000000",
"X  c #0A0A03",
"o  c #01010B",
"O  c #0B0A09",
"+  c #14120A",
"@  c #1B1A0D",
"#  c #03021B",
"$  c #020313",
"%  c #1B1B1B",
"&  c #151415",
"*  c #222200",
"=  c #000023",
"-  c #060525",
";  c #1D1F29",
":  c #292825",
">  c #363425",
",  c #302E3E",
"<  c #2C2A33",
"1  c #413E23",
"2  c #403C39",
"3  c #49462A",
"4  c #4A4736",
"5  c #534F34",
"6  c #5A5633",
"7  c #615D39",
"8  c #00004B",
"9  c #181B4D",
"0  c #000059",
"q  c #1C0E58",
"w  c #10165A",
"e  c #1E115B",
"r  c #101650",
"t  c #0E1449",
"y  c #000064",
"u  c #00006D",
"i  c #000962",
"p  c #151B64",
"a  c #1C1E63",
"s  c #151C6C",
"d  c #17196C",
"f  c #00007B",
"g  c #060776",
"h  c #180078",
"j  c #011670",
"k  c #161D72",
"l  c #191E74",
"z  c #161E7A",
"x  c #1C1E7C",
"c  c #0B1461",
"v  c #200E68",
"b  c #211364",
"n  c #25156E",
"m  c #261475",
"M  c #281776",
"N  c #29177B",
"B  c #221C7B",
"V  c #2A1878",
"C  c #1C226B",
"Z  c #1E2363",
"A  c #1B2373",
"S  c #1A227D",
"D  c #172079",
"F  c #3E3565",
"G  c #242A7B",
"H  c #262578",
"J  c #31237B",
"K  c #322575",
"L  c #352B6E",
"P  c #534F40",
"I  c #47465F",
"U  c #7A5649",
"Y  c #785649",
"T  c #746D43",
"R  c #6B635B",
"E  c #474668",
"W  c #58536E",
"Q  c #4E4A74",
"!  c #55547D",
"~  c #5A547E",
"^  c #5A5576",
"/  c #665F71",
"(  c #547775",
")  c #626C66",
"_  c #896C53",
"`  c yellow",
"'  c #FDFF18",
"]  c #A39D64",
"[  c #B1AA71",
"{  c #B1AB70",
"}  c #C4BC77",
"|  c #AAE95C",
" . c #D1F143",
".. c #E2E144",
"X. c #E1E14B",
"o. c #E3E351",
"O. c #CBC37D",
"+. c #020085",
"@. c #080086",
"#. c #03008F",
"$. c #080089",
"%. c #1B0085",
"&. c #1C1B83",
"*. c #0E0093",
"=. c #000095",
"-. c #140093",
";. c #1B0095",
":. c #26078A",
">. c #2A1584",
",. c #251C85",
"<. c #2C1984",
"1. c #2C148C",
"2. c #261B8A",
"3. c #2C1B8D",
"4. c #301F84",
"5. c #301B8F",
"6. c #230093",
"7. c #320D9A",
"8. c #2E1691",
"9. c #2F1892",
"0. c #311B92",
"q. c #331797",
"w. c #1B2481",
"e. c #1B2681",
"r. c #242383",
"t. c #2B2782",
"y. c #222A82",
"u. c #2C248B",
"i. c #242A88",
"p. c #2B2985",
"a. c #332484",
"s. c #3D2E86",
"d. c #34258E",
"f. c #3D2C8E",
"g. c #2C3387",
"h. c #373689",
"j. c #362492",
"k. c #382693",
"l. c #352995",
"z. c #3B2B93",
"x. c #3B239C",
"c. c #3A3696",
"v. c #3614A0",
"b. c #3620A0",
"n. c #433784",
"m. c #422E9B",
"M. c #402E90",
"N. c #4E3F92",
"B. c #45319C",
"V. c #48359D",
"C. c #4B3A9D",
"Z. c #433492",
"A. c #4632A0",
"S. c #4834A1",
"D. c #4D39A5",
"F. c #513DA4",
"G. c #523EA8",
"H. c #442AA4",
"J. c #3242A7",
"K. c #4B4388",
"L. c #514887",
"P. c #565482",
"I. c #5A5482",
"U. c #5C548D",
"Y. c #5D5880",
"T. c #494B96",
"R. c #564896",
"E. c #4D5297",
"W. c #5D5591",
"Q. c #56559B",
"!. c #635B88",
"~. c #675D98",
"^. c #6E6498",
"/. c #6E658D",
"(. c #414EA5",
"). c #5644A5",
"_. c #5D4CA9",
"`. c #5745A7",
"'. c #4551A5",
"]. c #4954A6",
"[. c #4855A8",
"{. c #6555A7",
"}. c #6D5EB1",
"|. c #5A63A8",
" X c #6A67A3",
".X c #7468A4",
"XX c #49858A",
"oX c #1CB2C7",
"OX c #D6CE89",
"+X c #DED58B",
"@X c #DCD387",
"#X c #E0D78C",
"$X c #E4DA8C",
"%X c #E2DA94",
"&X c #F7DC82",
"*X c #E9E08E",
"=X c #EBE291",
"-X c #EBE299",
";X c #F0E797",
":X c #F4EB96",
">X c #F9EF99",
",X c #F3E999",
"<X c #FDF39C",
"1X c #FFF99D",
"2X c #FEE286",
"3X c #FFF9A0",
/* pixels */
"                                                                                                    ",
"              _.).S.V.!.j.>.N >.                                                                    ",
"            _.G.D.q.W.X.W.-.a.>.+.>.                                                                ",
"            _.~.V.0.l.U.z.9.8.a.~ J >.0.                                                            ",
"          G..Xo.W.-.0.-.-.0.-.U...~ h a.<.                                                          ",
"        _.`.z.W.j.8.0.z.U.k.8.k.U.d.+.>.N >.<.8.                                                    ",
"      }.S.k.      j.;.U.X.U.-.l.-.j.U.j.9.<.N a.!.                                                  ",
"      {.x.          ).z.U.j.g.h.;.U.X.U.-.z.@.~ X.~                                                 ",
"                    _.S.;.j.l.l.j.z.W.c.8.9.8.d.Y.J >.                                              ",
"                    [.'.].'.J.].J.(.J.J.l.j.j.5.-.>.M                                               ",
"                  |.g.e.y.e.y.S y.y.g.T.(.'.J.c.l.0.a.W                                             ",
"              Q.E.c.f D S S D s C w p C C j G '.'.b.~.o.!.                                          ",
"          Q.T.h.y.! E Z C C r r t # & O . > = Z G J.[.^.].|.[.[.                            `       ",
"        E.y.y.f E ;X-XI 0 9 $ o o . . . 5 { 3 . 9 A D +.y.y.e.i.'.'.'.              '   '           ",
"      T.w.D C y E $X$XE 8 & . . . @ > 5 O.*XO.7 - Z k C D D e.S w.i.y.                              ",
"    E.S k D A j h.{ { F = X . O . @ ] O.>X1X:XO.> i C s A A D S D w.D                 |             ",
"  T.y.z S A s Z N.F F N.; @ % % % 3 5 6 >X>X7 6 : c p k A k S S e.e.e.                     .        ",
"  e.e.S S k p p k.C.F.V., > , ; 4 @X=XT :X&XT $X5 0 C p s e.e.S S S               XXoX              ",
"  S w.S S k p p 5.M.k.<.- X @ . 1 #X1X>X<X2X>X>X4 u y.k D S S                   ( ( XX              ",
"  S w.w.w.e.s s >.-.1.m # . + . > +X<X1X1X<X3X:X4 h y.D S                     ) (                   ",
"    S e.S S S x j.I.K v # . + . 3 @X=X<X<X1X<X$X, 6.i.S                     R R                     ",
"                ~ ..W y + . + . 1 $X<X<X1X<X$X} > :.j.8.                  Y Y                       ",
"                  ! J q # . * . 4 :X=X$X$X$XOXP -                       U U                         ",
"                  *.1.M e = # = Q @X$X$X} ] / 1.5.                    U U                           ",
"                    0.>.m n W h K.+X=X$X$X$XOXL.6.V.7.C.^.R.`.b.R.%X:X_                             ",
"                      a.@.^ ..! N.>X1X$X$X<X>XR.-.Z.R.W.X.Y.b.q.R.%X1X                              ",
"                      0.>.%.U.x.R.,X1X<X>X1X:XW.=.!.X.W.L.s.m.q.-.                                  ",
"                        J Y.6.B.m.^.-X%X[ -X.Xq.f.a.~ a.#.>.0.z.!.                                  ",
"                        ~ ..Y.q.G.C..XR.C.{.).B.          a.$.U...                                  ",
"                        a.I.a.1.k.N.H.G.`.G.C.B.            >.a.~                                   ",
"                      m.B.:.>.5.1.K !._.`.C.0.                                                      ",
"                    V.n.n.n.s.k.$.W ..Y.;.J <.                                                      ",
"                V.R.~.C.B.B.C.V.0.j.U.d.1.M m                                                       ",
"                `.).C.B.m.0.7.m.B.0.-.0.0.N <.                                                      ",
"              _.).V.m.B.q.k.U.z.m.0.4.9.-.9.5.                                                      ",
"              C.B.B.0.k.-.U.X.U.;.k.<.d.U.k.<.<.                                                    ",
"            V.B.B.B.j.9.8.d.U.d.9.B.8.U.X.W.6.k.                                                    ",
"            V.S.B.0.-.8.u.,.f 2.r.u.z.d.! j.-.8.                                                    ",
"            ).S.0.j.U.d.&.B a k f &.c.f.#.d.U.k.9.                                                  ",
"            B.S.-.U.X.! f H d H ! a.0.Z.%.~ ..W.-.                                                  ",
"            B.A.0.d.P.y.k H u ! ..! -.V.M.a.~ k.8.                                                  ",
"            S.B.0.1.+.&.k k d G P.G 3.0.M.<.@.<.0.0.                                                ",
"          _.V.B.0.3.r.w.d d l ,.+.&.2.3.0.f.M >.q.5.                                                ",
"          `.A.m.u.w.w.x l B ,.2.p.r.,.B 0.4.b 4.0.n                                                 ",
"          D.B.0.,.t.S k l <.<.3.B ,.G 2.3.5.n M 3.N                                                 ",
"          V.B.u.&.+.l B 2.<.3.2.,.,.+.2.<.5.n e N m e                                               ",
"        `.S.c.,.p.! H 2.<.3.r.,.2.d.P.a.<.0.b q b b b                                               ",
"        B.A.z.#.P...U.@.4.8.,.H #.U.X.~ -.d.e q b n b 3.                                            ",
"      B.V.B.m.0.t.I.k.9.0.<.>.3.8.k.U.d.1.0.5.m m N m m 5.                                          ",
"      C.A.B.0.0.9.-.9.0.0.<.0.0.0.8.-.9.5.0.0.5.5.0.0.0.0.                                          "
};
