/* XPM */
static char *result[] = {
/* columns rows colors chars-per-pixel */
"50 50 51 1 ",
"  c black",
". c #010301",
"X c #030903",
"o c #040D04",
"O c #071507",
"+ c #0E2C0E",
"@ c #262F26",
"# c #2A2A2A",
"$ c #2F352F",
"% c gray20",
"& c #353E35",
"* c #353F35",
"= c gray24",
"- c #3C3E3C",
"; c #164416",
": c #174517",
"> c #1C451C",
", c #1B501B",
"< c #1C511C",
"1 c #264626",
"2 c #284628",
"3 c #324032",
"4 c #3B493B",
"5 c #3D493D",
"6 c #3F483F",
"7 c #236025",
"8 c #256427",
"9 c #276929",
"0 c #434943",
"q c #494949",
"w c #484A48",
"e c gray29",
"r c #405E40",
"t c #505E50",
"y c #595F59",
"u c #586158",
"i c #616061",
"p c gray39",
"a c #666866",
"s c DimGray",
"d c #647464",
"f c #677767",
"g c #6B796B",
"h c #737E73",
"j c #757F75",
"k c #778077",
"l c #7F857F",
"z c #8A8C8A",
"x c #8C8A8C",
"c c gray56",
"v c None",
/* pixels */
"vvvvvvvvvvvvvvvvvvvvvvvvvvvvvvvvvvvvvvvvvvvvvvvvvv",
"vvvv     vvvvvvvvv                   vvvvvvv     v",
"vvv   ee           ee sssssssssssss  vvvvvv  sss v",
"v   eeeeeeeeeeeeeeeee ssssssssssssqq  vv    ssss v",
"v eeeeeeeeeeee%%%%%%e sssssssssssqqss   ssssssss v",
"  eeeeeeeeeee%eee%%e%.qqqqsssqqqqqssssssssssssss v",
" eeeeeeeeee%%eeeeeewe sssqqqqqssssssssssssssssss v",
" eeeee%%%%%%eeeeeewweossasssssssssssssssssssssss v",
" eeeee%eeeeeeeeeeee6e ssssssssssssssssssssssssss v",
"  eee%eeeeeeeeeeee6eeOsusassssssssssssssssssssss v",
"v ee%eeeeeeeeeeeeeee4Otsussssssssssssssssssssss  v",
"v        eeeeeeeeeeO  sso                       vv",
"v ccpccc eeeeeeeeee  gss cccccccccccc ========= vv",
"v cpccccc     eee        ccccccccccc  =========  v",
"v ppccccccccc    ccdkjccccccccccccc  =========== v",
"v  ccccccccccccccckccfcdkzcccccccc  ==========##  ",
"v  cccccccccccccccccgggckccccccccc ==========##== ",
"vv  cccccccccccccccgggggkccccccccc  ========##=== ",
"vvv ccccccccccccczzcgggcccccccccccc =======##==== ",
"vvv ccccccccccczckcccgczccccccccccc  ======#===== ",
"vvv cccccccccczzckckhjcccccccccccccc =====##====  ",
"vvv ccccccccccckccccczckkccccccccccc =====#===== v",
"vvv cccccccccckccgckczcccccccccccccc ====##====  v",
"vvv             OOO o     ccccccc               vv",
"vvv sssss =====33333&====  ccccc   == xxxixxxxx vv",
"vvv sssss ====-=333=#=====   c   ==== xxiixxxx  vv",
"vvv sssss ===&===3=-#=======   ======  xiixxxx vvv",
"vv  sssss =====&&*=#================== xxixxxx vvv",
"v  ssssss =======-#@&================= xxixxxx vvv",
"v  ssssss ========#==================  xxxiixx vvv",
"v qqsssss ========##============::=== xxxxx:ii vvv",
"  sqqssss =========#==##=========:::= xxxxx:xi vvv",
" ssssqqss =========#=####========:::9xxxxx99:x vvv",
" sssssqss =========###==#===========9xxxx99x:x vvv",
"  ssssqqs ==============#===========9xxxx9xx::  vv",
"v                                   9    9      vv",
"v cccccccpppccccccccccccpcc eeeeeeee9eeee9eeeee vv",
"v ccccccccccpccccccccccpccc eeeeeeee9ee::eeeeee  v",
"v  ccccccccccccccccccccpccc eee99e:e9e::9:eeeeee v",
"vv ccccccccccpccccccccppccc eeee9::9e::::eeeeeee  ",
"v  cccccccccccpppppppppcccc eeee9::9e:::eeeeeeeee ",
"v ccccccccccccccccccccpppccXeeeee9:90::90eeee0eee ",
"v ccccccccccccccccccccccpyp %eee0e::::,ee0e0eeeee ",
"v ccccccccccccccccccccccllc+e%$$0e<:;78e2e05e2eee ",
"v cccccccccccccccccccccccrc eee%2ee;:9;e2e02eeee  ",
"v  cccccccccccccccccccccrcc:e2e1%%:9<;:::2>e0:e2 v",
"vv  cccccccccccccccccccccc:::e2ee:::::::::e2:::e+v",
"vvv  cccccccccccccccccccc:::::2            :::::+v",
"vvvv                    X        vvvvvvvvv       v",
"vvvvvvvvvvvvvvvvvvvvvvvvvvvvvvvvvvvvvvvvvvvvvvvvvv"
};
