/* XPM */
static char *eb11f12daa404d40b717c5736ef142efAJAin24KGAIYmvOM[] = {
/* columns rows colors chars-per-pixel */
"50 50 5 1 ",
"  c None",
". c black",
"X c #4CAF50",
"o c #009688",
"O c white",
/* pixels */
"                                                  ",
"                                                  ",
"                                                  ",
"                                                  ",
"                                                  ",
"    ..                       ...                  ",
"   .oo.                     .ooo.                 ",
"  .oooo....             ....ooooo.                ",
"  .oooo.  ....        ...  .ooooo.                ",
"   .oo.     ...      ...    .ooo.                 ",
"    ..        ...  ...       ...                  ",
"               ... ..                             ",
"              ..........                          ",
"            ...XXXXXXXX...                        ",
"          ..XXXXXXXXXXXXXX..                      ",
"        ..XXXXXXXXXXXXXXXXXX...                   ",
"      ...XXXXXXXXXXXXXXXXXXXXX..                  ",
"     ..XXX..XXXXX..XXXXXXXXXXXX...                ",
"    ..XXX.O..XXX.O..XXXXXXXXXXXXX..               ",
"    .XXXX..O.XXX..O.XXXXXXXXXXXXXX.               ",
"   ..XXXXX..XXXXX..XXXXXXXXXXXXXXX.               ",
"   .XXXXXXXXXXXXXXXXXXXXXXXXXXXXXX..              ",
"  ..XXXXXXXXXXXXXXXXXXXXXXXXXXXXXXX.              ",
"  .XXXXXXXXXXXXXXXXXXXXXXXXXXXXXXXX.              ",
"  .XXXXXXXXXXXXXXXXXXXXXXXXXXXXXXXX.              ",
"  .XXXXXXXXXXXXXXXXXXXXXXXXXXXXXXXX.              ",
" ..XXXXXXXXXXXXXXXXXXXXXXXXXXXXXXXX.              ",
" ..XXXXXXXXXXXXXXXXXXXXXXXXXXXXXXXX.              ",
" .XXXXXXXXXXXXXXXXXXXXXXXXXXXXXXXXX.              ",
" .XXXXXXXXXXXXXXXXXXXXXXXXXXXXXXXXX.              ",
" ......XXXXXXXXXXXXXXXXXXXXXXXXXX...              ",
"      .....XXXXXXXXXXXXXXXX.......                ",
"          ..................                      ",
"                                                  ",
"                                                  ",
"                                                  ",
"              ................                    ",
"     .................................            ",
"   ......................................         ",
"   ......................................         ",
"  ......................................          ",
"  ..................................              ",
"  ................................                ",
"  ................    .........                   ",
"                                                  ",
"                                                  ",
"                                                  ",
"                                                  ",
"                                                  ",
"                                                  "
};
