/* XPM */
static char *result[] = {
/* columns rows colors chars-per-pixel */
"50 50 5 1 ",
"  c black",
". c #4CAF50",
"X c #009688",
"o c white",
"O c None",
/* pixels */
"OOOOOOOOOOOOOOOOOOOOOOOOOOOOOOOOOOOOOOOOOOOOOOOOOO",
"OOOOOOOOOOOOOOOOOOOOOOOOOOOOOOOOOOOOOOOOOOOOOOOOOO",
"OOOOOOOOOOOOOOOOOOOOOOOOOOOOOOOOOOOOOOOO   OOOOOOO",
"OOOOOOOOOOOOOOOOOOOOOOOOOOOOOOOOOOOOOOO XXX OOOOOO",
"OOOOOOOOOOOOOOOOOOOOOOOOOOOOOOOOOOOOOO XXXXX OOOOO",
"OOOOOOOOOOO   OOOOOOOOOOOOOOOOOOOOOOOO XXXXX OOOOO",
"OOOOOOOOOO XXX OOOOOOOOOOOOOOOOOOOOOOO XXXXX OOOOO",
"OOOOOOOOO XXXXX OOOOOOOOOOOOOOOOOOOOOO  XXX OOOOOO",
"OOOOOOOOO XXXXX OOOOOOOOOOOOOOOOOOOOO      OOOOOOO",
"OOOOOOOOO XXXXX   OOOOOOOOOOOOOOOOOO   OOOOOOOOOOO",
"OOOOOOOOOO XXX O   OOOOOOOOOOOOOOOO   OOOOOOOOOOOO",
"OOOOOOOOOOO   OOO   OOOOOOOOOOOOOO   OOOOOOOOOOOOO",
"OOOOOOOOOOOOOOOOOO   OOOOOOOOOOO    OOOOOOOOOOOOOO",
"OOOOOOOOOOOOOOOOOOO   OOOOOOOOO    OOOOOOOOOOOOOOO",
"OOOOOOOOOOOOOOOOOOOO   OOOOOOO   OOOOOOOOOOOOOOOOO",
"OOOOOOOOOOOOOOOOOOOOO   OOOOO   OOOOOOOOOOOOOOOOOO",
"OOOOOOOOOOOOOOOOOOOOOO   OOO   OOOOOOOOOOOOOOOOOOO",
"OOOOOOOOOOOOOOOOOOOOOOO   O   OOOOOOOOOOOOOOOOOOOO",
"OOOOOOOOOOOOOOOOOOOOOOOO  O  OOOOOOOOOOOOOOOOOOOOO",
"OOOOOOOOOOOOOOOOOOOO           OOOOOOOOOOOOOOOOOOO",
"OOOOOOOOOOOOOOOOOOOO ......... OOOOOOOOOOOOOOOOOOO",
"OOOOOOOOOOOOOOOOOO  ...........  OOOOOOOOOOOOOOOOO",
"OOOOOOOOOOOOOOOO  ...............  OOOOOOOOOOOOOOO",
"OOOOOOOOOOOOOO  ...................  OOOOOOOOOOOOO",
"OOOOOOOOOOOOO ....................... OOOOOOOOOOOO",
"OOOOOOOOOOO  .........................  OOOOOOOOOO",
"OOOOOOOOO  ..............   .....   ....  OOOOOOOO",
"OOOOOOOO ...............  oo ...  oo ..... OOOOOOO",
"OOOOOOO ................  oo ...  oo ...... OOOOOO",
"OOOOOOO ................ oo  ... oo  ...... OOOOOO",
"OOOOOO ..................   .....   ........ OOOOO",
"OOOOOO ..................................... OOOOO",
"OOOOO ....................................... OOOO",
"OOOOO ....................................... OOOO",
"OOOOO ....................................... OOOO",
"OOOO ......................................... OOO",
"OOOO ......................................... OOO",
"OOO ........................................... OO",
"OO  ........................................... OO",
"OO    ........................................  OO",
"OO      ...................................   OOOO",
"OOO            .....................        OOOOOO",
"OOOO                                 OOOOOOOOOOOOO",
"OOOOO                           OOOOOOOOOOOOOOOOOO",
"OOOOOOO                       OOOOOOOOOOOOOOOOOOOO",
"OOOOOOOOOO               OOOOOOOOOOOOOOOOOOOOOOOOO",
"OOOOOOOOOOOOOOOOOOOOOOOOOOOOOOOOOOOOOOOOOOOOOOOOOO",
"OOOOOOOOOOOOOOOOOOOOOOOOOOOOOOOOOOOOOOOOOOOOOOOOOO",
"OOOOOOOOOOOOOOOOOOOOOOOOOOOOOOOOOOOOOOOOOOOOOOOOOO",
"OOOOOOOOOOOOOOOOOOOOOOOOOOOOOOOOOOOOOOOOOOOOOOOOOO"
};
