/* XPM */
static char *result[] = {
/* columns rows colors chars-per-pixel */
"50 50 5 1 ",
"  c black",
". c #4CAF50",
"X c #009688",
"o c white",
"O c None",
/* pixels */
"OOOOOOOOOOOOOOOOOOOOOOOOOOOOOOOOOOOOOOOOOOOOOOOOOO",
"OOOOOOOOOOOOOOOOOOOOOOOOOOOOOOOOOOOOOOOOOOOOOOOOOO",
"OOOOOOO   OOOOOOOOOOOOOOOOOOOOOOOOOOOOOOOOOOOOOOOO",
"OOOOOO XXX OOOOOOOOOOOOOOOOOOOOOOOOOOOOOOOOOOOOOOO",
"OOOOO XXXXX OOOOOOOOOOOOOOOOOOOOOOOOOOOOOOOOOOOOOO",
"OOOOO XXXXX OOOOOOOOOOOOOOOOOOOOOOOO   OOOOOOOOOOO",
"OOOOO XXXXX OOOOOOOOOOOOOOOOOOOOOOO XXX OOOOOOOOOO",
"OOOOOO XXX  OOOOOOOOOOOOOOOOOOOOOO XXXXX OOOOOOOOO",
"OOOOOOO      OOOOOOOOOOOOOOOOOOOOO XXXXX OOOOOOOOO",
"OOOOOOOOOOO   OOOOOOOOOOOOOOOOOO   XXXXX OOOOOOOOO",
"OOOOOOOOOOOO   OOOOOOOOOOOOOOOO   O XXX OOOOOOOOOO",
"OOOOOOOOOOOOO   OOOOOOOOOOOOOO   OOO   OOOOOOOOOOO",
"OOOOOOOOOOOOOO    OOOOOOOOOOO   OOOOOOOOOOOOOOOOOO",
"OOOOOOOOOOOOOOO    OOOOOOOOO   OOOOOOOOOOOOOOOOOOO",
"OOOOOOOOOOOOOOOOO   OOOOOOO   OOOOOOOOOOOOOOOOOOOO",
"OOOOOOOOOOOOOOOOOO   OOOOO   OOOOOOOOOOOOOOOOOOOOO",
"OOOOOOOOOOOOOOOOOOO   OOO   OOOOOOOOOOOOOOOOOOOOOO",
"OOOOOOOOOOOOOOOOOOOO   O   OOOOOOOOOOOOOOOOOOOOOOO",
"OOOOOOOOOOOOOOOOOOOOO  O  OOOOOOOOOOOOOOOOOOOOOOOO",
"OOOOOOOOOOOOOOOOOOO           OOOOOOOOOOOOOOOOOOOO",
"OOOOOOOOOOOOOOOOOOO ......... OOOOOOOOOOOOOOOOOOOO",
"OOOOOOOOOOOOOOOOO  ...........  OOOOOOOOOOOOOOOOOO",
"OOOOOOOOOOOOOOO  ...............  OOOOOOOOOOOOOOOO",
"OOOOOOOOOOOOO  ...................  OOOOOOOOOOOOOO",
"OOOOOOOOOOOO ....................... OOOOOOOOOOOOO",
"OOOOOOOOOO  .........................  OOOOOOOOOOO",
"OOOOOOOO  ....   .....   ..............  OOOOOOOOO",
"OOOOOOO ..... oo  ... oo  ............... OOOOOOOO",
"OOOOOO ...... oo  ... oo  ................ OOOOOOO",
"OOOOOO ......  oo ...  oo ................ OOOOOOO",
"OOOOO ........   .....   .................. OOOOOO",
"OOOOO ..................................... OOOOOO",
"OOOO ....................................... OOOOO",
"OOOO ....................................... OOOOO",
"OOOO ....................................... OOOOO",
"OOO ......................................... OOOO",
"OOO ......................................... OOOO",
"OO ........................................... OOO",
"OO ...........................................  OO",
"OO  ........................................    OO",
"OOOO   ...................................      OO",
"OOOOOO        .....................            OOO",
"OOOOOOOOOOOOO                                 OOOO",
"OOOOOOOOOOOOOOOOOO                           OOOOO",
"OOOOOOOOOOOOOOOOOOOO                       OOOOOOO",
"OOOOOOOOOOOOOOOOOOOOOOOOO               OOOOOOOOOO",
"OOOOOOOOOOOOOOOOOOOOOOOOOOOOOOOOOOOOOOOOOOOOOOOOOO",
"OOOOOOOOOOOOOOOOOOOOOOOOOOOOOOOOOOOOOOOOOOOOOOOOOO",
"OOOOOOOOOOOOOOOOOOOOOOOOOOOOOOOOOOOOOOOOOOOOOOOOOO",
"OOOOOOOOOOOOOOOOOOOOOOOOOOOOOOOOOOOOOOOOOOOOOOOOOO"
};
