/* XPM */
static char *ad0f6e3be6bd430ae06a663c83863c4e5IzcFg05OqIFfi9J[] = {
/* columns rows colors chars-per-pixel */
"50 50 25 1 ",
"  c None",
". c black",
"X c #080504",
"o c #0A0604",
"O c #281916",
"+ c #331E17",
"@ c #042905",
"# c #052E06",
"$ c #37231F",
"% c #3E2723",
"& c #442C26",
"* c #452D27",
"= c #472E28",
"- c #493029",
"; c #4B332C",
": c #50372F",
"> c #533931",
", c #543931",
"< c #593D34",
"1 c #164717",
"2 c #184F1A",
"3 c #5D4037",
"4 c #F44336",
"5 c #E6D237",
"6 c #FFEB3B",
/* pixels */
"             ..#......................            ",
"      .......%2@3333333+XX+333,333333%......      ",
"  ....%3>3333%#@>333333+oo+333,333333%33>33%....  ",
" .3>3322>3333213>333333+oo+333,<33333%33>33%3333. ",
" .3>33%#@13311,3>333333+oo+333,-33333%33>33%3333. ",
" .3>33%3#111,%33>333333+oX+333>3%3333%33>33%333>. ",
" .3#33%33>2@3%33>3<3333+oo+333>3%3333%33>33%<33>. ",
" .2#23%33>313%33:333333+oo+333>-=3333%33>33%-33>. ",
" .2313%3>>313%3:>>-33<3+oo+333,333333%33>33%3%>3. ",
" .33;122>>213%3>*>>3333+oo+333>,>>333%33>33%3%>3. ",
" .33>3%412#13%3-33%3-3<+oo$33333<>333%33>33%-*>3. ",
" .33>34642,;3%333%%%3-3+oo+<3333*3333%33>33%3>33. ",
" .3>>3%4@21>3%33%%%%%-3+oo+33333>%333%33>33%>>33. ",
" X3>3321331>>%3<3%%%333+oo+3333>,%333%33>33%>333. ",
" O3>3#1,3311>%-333%3<33+oo+3333>-*333%3>333%>333. ",
" .%2111>33213%33--&3333+oo+3333>33333%3>333%>333. ",
" #23>3%>33@@3%3333>3--3+oo+3333>33333%3>>33%>333. ",
" ##3>3%>3#@33%3333>3333+oo+3333>33333%33>33%>333. ",
" .##>3%><3233%3333>>333+oo+33333>3333%33>33%>333. ",
" .3#>3%>*3333%33333>>>3+oo+333333>333%33>33%>333. ",
" .3#33%3>%333%3333333>3+oo+333333>333%3>333%>333. ",
" .3>33%33%>33%3333333>3+oo+333333>333%3>333%3>33. ",
" .3>,3%3-*>33%3333333>3+oo+33333>>333%33>33%3>33. ",
" .33,3%333>33%3333333>>+oo+3333>>3333%33>33%<>33. ",
" .33>3%333>33%33333333,+oo+3333>33333%33>33%->>3. ",
" .33>3%333>33%333333333+oo+3333>33333%33>33%3%>3. ",
" .3>>3%3333>3%333666333+oo+3336663333%33>33%3%>3. ",
" .3>33%3333>3%33633363<+oo+3363>36333%33>33%-=>3. ",
" .3>>3%3333,3&336333633+oo+3363>36333%33>33%33>3. ",
" .33>3%33333,$336333533$oo+3363>36333%33>>3%33>3. ",
" .33>3%333333$333666-33+oo+3336663333%333>3%33>>. ",
" .<3>3%333333&3333333$3+oo+3333>>3333%333>3%333>. ",
" .-3>3%>33333%3333333%3+Xo$<3333,3333%33>>3%3333. ",
" .3%>3%>>3333%333333-*>+oo+33333,>333%33>33%3333. ",
" .3%>3%3>3333%3333333,>+oo+333333>333%33>33%3333. ",
" .-*>3%3>>>>3%3333333,3+oo+33333<>333%33>33%3333. ",
" .3>33%3333>3%3333333>3+oo+333<3>>333%33>33%3333. ",
" .3>33%3333>3%33333>>33+oo+33<<3*33<3%33>33%3333. ",
" .3>33%3333>3%3333>>333+oo+333-3>3333%33>33%3333. ",
" .3>33%3333>3%3333>3333+oo+33-33%3-3<%33>33%3333. ",
" .3>33%3333>3%3333>3333+oX+3333%%%3-3%33>33%3<33. ",
" .3>33%3<3>33%33<3>3333+oX+333%%%%%-3%33>33%3-33. ",
" .3>33%3-3>33%33-3,3333+oo+33<3%%%333%33>33%33%3. ",
" .3>>3%33%>33%333%33333+oo+3-333%3<33%33>33$33%3. ",
" .33>3%33%>33%333%33333+oo+333--*3333%33>>,%3-*3. ",
" .33>3%3-=>33%33-*33333+oo+33333:3--3%333>,%3333. ",
" .33>3%333>>3%333,33333+oo+33333>>333%333>3%3333. ",
" .33>3%333333%333,33333+oo+333333>333%333>3%3333. ",
" ................................................ ",
"                                                  "
};
