/* XPM */
static char *result[] = {
/* columns rows colors chars-per-pixel */
"50 50 214 2 ",
"   c #010101",
".  c #0C0A03",
"X  c #05040C",
"o  c #141305",
"O  c #171705",
"+  c #000013",
"@  c #01001B",
"#  c #0D0D10",
"$  c #141414",
"%  c #1E1C1B",
"&  c #3C391C",
"*  c #312D1A",
"=  c #000022",
"-  c #1B1A2B",
";  c #363525",
":  c #322F30",
">  c #413E22",
",  c #4A4726",
"<  c #534F2D",
"1  c #494533",
"2  c #524E39",
"3  c #5B5630",
"4  c #615D36",
"5  c #776C3F",
"6  c #060A4C",
"7  c #040759",
"8  c #170759",
"9  c #181949",
"0  c #000163",
"q  c #00006D",
"w  c #080D66",
"e  c #1B0A64",
"r  c #1F0D6D",
"t  c #1A0668",
"y  c #0C1464",
"u  c #0C156B",
"i  c #0E186E",
"p  c #141B69",
"a  c #141766",
"s  c #01007C",
"d  c #040675",
"f  c #0C1474",
"g  c #0E1879",
"h  c #111674",
"j  c #121A73",
"k  c #1C157B",
"l  c #121C7D",
"z  c #171A77",
"x  c #140074",
"c  c #220D75",
"v  c #220C7B",
"b  c #25107C",
"n  c #2D1D7B",
"m  c #241578",
"M  c #271A68",
"N  c #192168",
"B  c #1C2478",
"V  c #3C3265",
"C  c #23227C",
"Z  c #282176",
"A  c #3D3374",
"S  c #413F60",
"D  c #45445F",
"F  c #7A5446",
"G  c #795749",
"H  c #6B635B",
"J  c #726E43",
"K  c #47466B",
"L  c #4D4975",
"P  c #555273",
"I  c #54537E",
"U  c #5B547E",
"Y  c #5C5576",
"T  c #58536C",
"R  c #665F72",
"E  c #547877",
"W  c #626C66",
"Q  c #8A6C52",
"!  c #5F846E",
"~  c #FFC107",
"^  c #FFFF06",
"/  c #FCFE15",
"(  c #FFEB3B",
")  c #A49E64",
"_  c #B2AC72",
"`  c #B2AC71",
"'  c #C5BD78",
"]  c #ABEA5C",
"[  c #D3F141",
"{  c #E3E243",
"}  c #E2E24B",
"|  c #E5E451",
" . c #CBC37D",
".. c #D0C87F",
"X. c #000086",
"o. c #010089",
"O. c #160088",
"+. c #141482",
"@. c #1B1483",
"#. c #141E81",
"$. c #1A1A83",
"%. c #1E1389",
"&. c #1F1989",
"*. c #040093",
"=. c #0C0094",
"-. c #090098",
";. c #110095",
":. c #1C0094",
">. c #150098",
",. c #0D1A81",
"<. c #260C85",
"1. c #270C89",
"2. c #240789",
"3. c #261283",
"4. c #291285",
"5. c #2D1B85",
"6. c #23158C",
"7. c #2A148E",
"8. c #22198A",
"9. c #2A1A8C",
"0. c #301F83",
"q. c #321F89",
"w. c #290D91",
"e. c #290497",
"r. c #320A9D",
"t. c #2C1392",
"y. c #2D1A94",
"u. c #2D1298",
"i. c #311B93",
"p. c #351B99",
"a. c #162283",
"s. c #1B2583",
"d. c #1D2888",
"f. c #242283",
"g. c #2D228D",
"h. c #262888",
"j. c #322185",
"k. c #33208C",
"l. c #3B298B",
"z. c #3B2988",
"x. c #2C358B",
"c. c #342192",
"v. c #392696",
"b. c #3C2993",
"n. c #3E2A9B",
"m. c #3A249B",
"M. c #363796",
"N. c #32358C",
"B. c #361AA1",
"V. c #330CA1",
"C. c #453786",
"Z. c #432D9D",
"A. c #4D3D93",
"S. c #45319D",
"D. c #49359E",
"F. c #4C3B9D",
"G. c #413193",
"H. c #442EA0",
"J. c #4225A5",
"K. c #4631A1",
"L. c #4B36A0",
"P. c #4D39A1",
"I. c #4B33AC",
"U. c #513DA4",
"Y. c #523CAA",
"T. c #3E448E",
"R. c #3E4CA5",
"E. c #2E40A9",
"W. c #4E4385",
"Q. c #555383",
"!. c #5A5381",
"~. c #5C538D",
"^. c #454D98",
"/. c #564897",
"(. c #4D5399",
"). c #5D5491",
"_. c #58539C",
"`. c #50458E",
"'. c #635A89",
"]. c #675D99",
"[. c #6E6499",
"{. c #6E658E",
"}. c #404EA7",
"|. c #414EA9",
" X c #5543A6",
".X c #5D4BAA",
"XX c #5845A8",
"oX c #4451A6",
"OX c #4552A9",
"+X c #4953A8",
"@X c #6555A8",
"#X c #6D5EB2",
"$X c #5A63A9",
"%X c #6A67A4",
"&X c #7568A5",
"*X c #45888D",
"=X c #16B3C8",
"-X c #D7CF8A",
";X c #DED58A",
":X c #E4DB8D",
">X c #E4DB8F",
",X c #E4DC93",
"<X c #F7DD83",
"1X c #ECE392",
"2X c #ECE39A",
"3X c #F2EA97",
"4X c #F2EA9B",
"5X c #F6EC99",
"6X c #FCF39C",
"7X c #FFF99E",
"8X c #F4E28B",
"9X c #FFF9A1",
"0X c white",
"qX c None",
/* pixels */
"qXqXqXqXqXqXqXqXqXqXqXqXqXqXqXqXqXqXqXqXqXqXqXqXqXqXqXqXqXqXqXqXqXqXqXqXqXqXqXqXqXqXqXqXqXqXqXqXqXqX",
"qXqXqXqXqXqXqXqXqXqXqXqXqXqXqXqXqXqXqXqXqXqXqXqXqXqXqXqXqXqXqXqXqXqX3.b <.c.).D.H. X.XqXqXqXqXqXqXqX",
"qXqXqXqX0XqXqXqXqX0XqXqXqXqXqXqXqXqXqXqXqXqXqXqXqXqXqXqXqXqXqXqX<.X.<.5.=.~.} ).V.L.Y..XqXqXqXqXqXqX",
"qXqXqX0X( 0XqXqX0X( 0XqXqXqXqXqXqXqXqXqXqXqXqXqXqXqXqXqXqXqXt.<.n !.q.t.t.v.~.c.t.D.]..XqXqXqXqXqXqX",
"qXqX0X( ~ ( 0X0X( ~ ( 0XqXqXqXqXqXqXqXqXqXqXqXqXqXqXqXqXqX4.q.x U { ~.=.i.*.*.y.;.).| &XY.qXqXqXqXqX",
"qXqXqX0X( ( ~ ~ ( ( 0XqXqXqXqXqXqXqXqXqXqXqXqXqXqXqXw.3.3.b <.o.i.).i.e.c.~.b.t.t.c.~.n.Y..XqXqXqXqX",
"qXqXqXqX0X~ ( ( ~ 0XqXqXqXqXqXqXqXqXqXqXqXqXqXqXqX'.q.v 4.w.c.~.c.*.c.;.~.} ).>.i.qXqXqXi.I.#XqXqXqX",
"qXqXqXqX0X~ ( ( ~ 0XqXqXqXqXqXqXqXqXqXqXqXqXqXqXU } !.X.b.-.~.} ~.:.N.h.i.~.v.P.qXqXqXqXqXv.@XqXqXqX",
"qXqXqX0X( 0X~ ~ ( ( 0XqXqXqXqXqXqXqXqXqXqXqXqX@.Z !.c.w.t.w.c.).v.y.c.c.y.-.K..XqXqXqXqXqXqXqXqXqXqX",
"qXqX0X( ~ ( 0X0X( ~ ( 0XqXqXqXqXqXqXqXqXqXqXqXv 1.=.w.y.p.v.R.E.R.R.R.R.OXOXoXoXqXqXqXqXqXqXqXqXqXqX",
"qXqXqX0X( 0XqXqX0X( 0XqXqXqXqXqXqXqXqXqXqXqXT j.t.c.v.R.R.R.R.d.s.d.s.s.d.a.a.x.%XqXqXqXqXqXqXqXqXqX",
"qXqXqXqX0XqXqXqXqX0XqXqXqXqXqXqXqXqXqXqXqX'.} [.B.oXR.B f N N y 7 u u l l l g X.M.^.(.qXqXqXqXqXqXqX",
"qXqXqX^ qXqXqXqXqXqXqXqXqXqXqXqXqXqXOXOX$XOX%XOXoXB N @ * X X X + 6 6 6 j u N K I s.x.^.(.qXqXqXqXqX",
"qXqXqXqXqX^ qX/ 0X0XqX0X( qXqXR.OXOXh.a.d.a.X.l B 7   , _ <           X 9 6 D 3X2XK d s.s.(.qXqXqXqX",
"qXqXqXqXqXqXqXqX( ( 0X( ~ 0XqXs.d.a.l l g l j j y + 3  .:X .< & o       # 6 S :X:XK q B j ,.T.qXqXqX",
"qXqXqXqXqXqX] qXqX~ ( ~ 0XqXqXl ,.l #.j j j i N 0 & ..3X7X5X .) o         @ A ` ` z.d N l j l (.qXqX",
"qXqXqXqX[ qXqXqX0X0X~ ( ( qXqXa.a.a.l l j f i p 7 % 3 4 5X6X3 < , $ # $ o - A.V V A.a i j l l s.^.qX",
"qXqXqXqXqXqXqX=X( ( 0X( ~ 0XqXqXl a.l #.#.j y p 7 2 :X5 <X5XJ 1X;X1 % : : : Z.U.U.q.y y j l #.#.s.qX",
"qXqX0X0XqX( qX*X! E qXqX0XqXqXqXqXqXqXa.#.j g B q 1 6X6X<X6X5X7X:X;   o   = 4.c.v.t.a y j l #.#.l qX",
"qXqX( ( 0X~ 0XqXqXE W qXqXqXqXqXqXqXqXqXqXl l s.s 1 3X9X6X7X7X6X:X&   .   + c w.*.<.p u #.a.#.a.#.qX",
"qXqX0X( ~ ( qXqXqXqXH H qXqXqXqXqXqXqXqXqXqX#.h.2.: :X6X9X7X6X1X;X>   .   + t n !.k.#.l l l #.#.qXqX",
"qXqXqX~ ( 0XqXqXqXqXqXG F qXqXqXqXqXqXqXqXqXw.i.2.; ' ,X6X6X6X6X:X&   .     7 T { !.qXqXqXqXqXqXqXqX",
"qXqX0X0X~ ( qXqXqXqXqXqXF F qXqXqXqXqXqXqXqXqXqXqX= 2 -X:X:X>X1X3X1   O   @ e n !.qXqXqXqXqXqXqXqXqX",
"qXqX( ( 0X~ 0XqXqXqXqXqXqXF F qXqXqXqXqXqXqXqXqXqXt.2.R ` ' :X,X>XL = @ @ 8 c 1.*.qXqXqXqXqXqXqXqXqX",
"qXqXqXqXqX0XqXqXqXqXqXqXqXqXQ 5X,X/.B. XF.[.L.r.Z.e.W.-X>X:X:X1X>XC.x T M c 4.t.qXqXqXqXqXqXqXqXqXqX",
"qXqXqXqXqXqXqXqXqXqXqXqXqXqXqX7X,X`.u.B.!.} )./.b.*./.9X7X1X>X6X5XA.W.{ Y X.5.qXqXqXqXqXqXqXqXqXqXqX",
"qXqXqXqXqXqXqXqXqXqXqXqXqXqXqXqXqX-.u.n.z.`.'.} ).*./.4X9X5X6X7X4X/.p.).O.2.7.qXqXqXqXqXqXqXqXqXqXqX",
"qXqXqXqXqXqXqXqXqXqXqXqXqXqXqXqXqX'.c.t.4.o.5.U j.l.p.[.2X_ ,X4X[.J.H.2.I j.qXqXqXqXqXqXqXqXqXqXqXqX",
"qXqXqXqXqXqXqXqXqXqXqXqXqXqXqXqXqX{ ].o.5.qXqXqXqXqXZ.Y.@XF._.%XU.XXr.U { U qXqXqXqXqXqXqXqXqXqXqXqX",
"qXqXqXqXqXqXqXqXqXqXqXqXqXqXqXqXqX!.0.<.qXqXqXqXqXqXZ.L.Y.XXY.J.C.c.4.0.!.j.qXqXqXqXqXqXqXqXqXqXqXqX",
"qXqXqXqXqXqXqXqXqXqXqXqXqXqXqXqXqXqXqXqXqXqXqXqXqXqXqXi.D. XXX'.n w.t.<.2.Z.S.qXqXqXqXqXqXqXqXqXqXqX",
"qXqXqXqXqXqXqXqXqXqXqXqXqXqXqXqXqXqXqXqXqXqXqXqXqXqXqX3.5.O.'.{ P X.i.z.C.z.z.S.qXqXqXqXqXqXqXqXqXqX",
"qXqXqXqXqXqXqXqXqXqXqXqXqXqXqXqXqXqXqXqXqXqXqXqXqXqXqXb b w.k.~.i.t.Z.F.Z.Z.`._.A.K.qXqXqXqXqXqXqXqX",
"qXqXqXqXqXqXqXqXqXqXqXqXqXqXqXqXqXqXqXqXqXqXqXqXqXqXqX4.c i.t.=.t.Z.Z.r.i.Z.K.L. XXXqXqXqXqXqXqXqXqX",
"qXqXqXqXqXqXqXqXqXqXqXqXqXqXqXqXqXqXqXqXqXqXqXqXqXqXqXt.t.=.t.5.t.n.c.).i.t.Z.Z.D.Y..XqXqXqXqXqXqXqX",
"qXqXqXqXqXqXqXqXqXqXqXqXqXqXqXqXqXqXqXqXqXqXqXqXqXqX4.1.i.~.c.4.v.;.~.} ~.=.i.i.Z.K.P.qXqXqXqXqXqXqX",
"qXqXqXqXqXqXqXqXqXqXqXqXqXqXqXqXqXqXqXqXqXqXqXqXqXqXc.:.~.} ~.e.Z.6.c.~.g.w.t.c.Z.Z.Z.D.qXqXqXqXqXqX",
"qXqXqXqXqXqXqXqXqXqXqXqXqXqXqXqXqXqXqXqXqXqXqXqXqXqXw.-.i.!.j.n.h.8.3.s %.9.t.-.u.Z.K.K.qXqXqXqXqXqX",
"qXqXqXqXqXqXqXqXqXqXqXqXqXqXqXqXqXqXqXqXqXqXqXqXqXt.p.~.i.X.l.n.+.s f a k +.g.~.p.t.K.U.qXqXqXqXqXqX",
"qXqXqXqXqXqXqXqXqXqXqXqXqXqXqXqXqXqXqXqXqXqXqXqXqX=.'.} U O.G.t.g.I C w Z s Q.} ~.:.L.D.qXqXqXqXqXqX",
"qXqXqXqXqXqXqXqXqXqXqXqXqXqXqXqXqXqXqXqXqXqXqXqXqXt.p.!.0.b.S.=.I { I q z f f.Q.q.t.H.Z.qXqXqXqXqXqX",
"qXqXqXqXqXqXqXqXqXqXqXqXqXqXqXqXqXqXqXqXqXqXqXqXt.t.3.X.3.G.i.6.f.Q.f.w i j l X.6.y.H.L.qXqXqXqXqXqX",
"qXqXqXqXqXqXqXqXqXqXqXqXqXqXqXqXqXqXqXqXqXqXqXqXt.t.4.M b.t.7.8.+.X.@.k a h #.8.6.y.n.S..XqXqXqXqXqX",
"qXqXqXqXqXqXqXqXqXqXqXqXqXqXqXqXqXqXqXqXqXqXqXqXr t.7.e 4.t.k +.$.h.6.3.k h #.+.$.t.Z.K. XqXqXqXqXqX",
"qXqXqXqXqXqXqXqXqXqXqXqXqXqXqXqXqXqXqXqXqXqXqXqXb t.b r 7.9.8.f.$.@.8.3.8.h h #.f.8.y.H.L.qXqXqXqXqX",
"qXqXqXqXqXqXqXqXqXqXqXqXqXqXqXqXqXqXqXqXqXqXqX8 c b e c t.4.6.X.6.b 6.8.3.8.k f X.+.8.n.K.qXqXqXqXqX",
"qXqXqXqXqXqXqXqXqXqXqXqXqXqXqXqXqXqXqXqXqXqXqXe e e 8 8 t.<.5.Q.g.&.@.8.6.4.6.C P h.&.n.K. XqXqXqXqX",
"qXqXqXqXqXqXqXqXqXqXqXqXqXqXqXqXqXqXqXqXqXqX4.e r e 8 8 k.=.!.} ~.*.m 3.t.5.X.~.{ Q.*.v.K.S.qXqXqXqX",
"qXqXqXqXqXqXqXqXqXqXqXqXqXqXqXqXqXqXqXqXqXt.r c 3.c c 7.y.<.k.).c.t.6.4.4.t.t.c.!.f.t.Z.Z.Z.Z.qXqXqX",
"qXqXqXqXqXqXqXqXqXqXqXqXqXqXqXqXqXqXqXqXqXt.t.t.t.t.t.t.t.t.t.;.t.t.t.t.4.t.t.w.=.t.t.p.Z.H.L.qXqXqX"
};
