/* XPM */
static char *result[] = {
/* columns rows colors chars-per-pixel */
"50 50 214 2 ",
"   c #010101",
".  c #0C0A03",
"X  c #05040C",
"o  c #141305",
"O  c #171705",
"+  c #000013",
"@  c #01001B",
"#  c #0D0D10",
"$  c #141414",
"%  c #1E1C1B",
"&  c #3C391C",
"*  c #312D1A",
"=  c #000022",
"-  c #1B1A2B",
";  c #363525",
":  c #322F30",
">  c #413E22",
",  c #4A4726",
"<  c #534F2D",
"1  c #494533",
"2  c #524E39",
"3  c #5B5630",
"4  c #615D36",
"5  c #776C3F",
"6  c #060A4C",
"7  c #040759",
"8  c #170759",
"9  c #181949",
"0  c #000163",
"q  c #00006D",
"w  c #080D66",
"e  c #1B0A64",
"r  c #1F0D6D",
"t  c #1A0668",
"y  c #0C1464",
"u  c #0C156B",
"i  c #0E186E",
"p  c #141B69",
"a  c #141766",
"s  c #01007C",
"d  c #040675",
"f  c #0C1474",
"g  c #0E1879",
"h  c #111674",
"j  c #121A73",
"k  c #1C157B",
"l  c #121C7D",
"z  c #171A77",
"x  c #140074",
"c  c #220D75",
"v  c #220C7B",
"b  c #25107C",
"n  c #2D1D7B",
"m  c #241578",
"M  c #271A68",
"N  c #192168",
"B  c #1C2478",
"V  c #3C3265",
"C  c #23227C",
"Z  c #282176",
"A  c #3D3374",
"S  c #413F60",
"D  c #45445F",
"F  c #7A5446",
"G  c #795749",
"H  c #6B635B",
"J  c #726E43",
"K  c #47466B",
"L  c #4D4975",
"P  c #555273",
"I  c #54537E",
"U  c #5B547E",
"Y  c #5C5576",
"T  c #58536C",
"R  c #665F72",
"E  c #547877",
"W  c #626C66",
"Q  c #8A6C52",
"!  c #5F846E",
"~  c #FFC107",
"^  c #FFFF06",
"/  c #FCFE15",
"(  c #FFEB3B",
")  c #A49E64",
"_  c #B2AC72",
"`  c #B2AC71",
"'  c #C5BD78",
"]  c #ABEA5C",
"[  c #D3F141",
"{  c #E3E243",
"}  c #E2E24B",
"|  c #E5E451",
" . c #CBC37D",
".. c #D0C87F",
"X. c #000086",
"o. c #010089",
"O. c #160088",
"+. c #141482",
"@. c #1B1483",
"#. c #141E81",
"$. c #1A1A83",
"%. c #1E1389",
"&. c #1F1989",
"*. c #040093",
"=. c #0C0094",
"-. c #090098",
";. c #110095",
":. c #1C0094",
">. c #150098",
",. c #0D1A81",
"<. c #260C85",
"1. c #270C89",
"2. c #240789",
"3. c #261283",
"4. c #291285",
"5. c #2D1B85",
"6. c #23158C",
"7. c #2A148E",
"8. c #22198A",
"9. c #2A1A8C",
"0. c #301F83",
"q. c #321F89",
"w. c #290D91",
"e. c #290497",
"r. c #320A9D",
"t. c #2C1392",
"y. c #2D1A94",
"u. c #2D1298",
"i. c #311B93",
"p. c #351B99",
"a. c #162283",
"s. c #1B2583",
"d. c #1D2888",
"f. c #242283",
"g. c #2D228D",
"h. c #262888",
"j. c #322185",
"k. c #33208C",
"l. c #3B298B",
"z. c #3B2988",
"x. c #2C358B",
"c. c #342192",
"v. c #392696",
"b. c #3C2993",
"n. c #3E2A9B",
"m. c #3A249B",
"M. c #363796",
"N. c #32358C",
"B. c #361AA1",
"V. c #330CA1",
"C. c #453786",
"Z. c #432D9D",
"A. c #4D3D93",
"S. c #45319D",
"D. c #49359E",
"F. c #4C3B9D",
"G. c #413193",
"H. c #442EA0",
"J. c #4225A5",
"K. c #4631A1",
"L. c #4B36A0",
"P. c #4D39A1",
"I. c #4B33AC",
"U. c #513DA4",
"Y. c #523CAA",
"T. c #3E448E",
"R. c #3E4CA5",
"E. c #2E40A9",
"W. c #4E4385",
"Q. c #555383",
"!. c #5A5381",
"~. c #5C538D",
"^. c #454D98",
"/. c #564897",
"(. c #4D5399",
"). c #5D5491",
"_. c #58539C",
"`. c #50458E",
"'. c #635A89",
"]. c #675D99",
"[. c #6E6499",
"{. c #6E658E",
"}. c #404EA7",
"|. c #414EA9",
" X c #5543A6",
".X c #5D4BAA",
"XX c #5845A8",
"oX c #4451A6",
"OX c #4552A9",
"+X c #4953A8",
"@X c #6555A8",
"#X c #6D5EB2",
"$X c #5A63A9",
"%X c #6A67A4",
"&X c #7568A5",
"*X c #45888D",
"=X c #16B3C8",
"-X c #D7CF8A",
";X c #DED58A",
":X c #E4DB8D",
">X c #E4DB8F",
",X c #E4DC93",
"<X c #F7DD83",
"1X c #ECE392",
"2X c #ECE39A",
"3X c #F2EA97",
"4X c #F2EA9B",
"5X c #F6EC99",
"6X c #FCF39C",
"7X c #FFF99E",
"8X c #F4E28B",
"9X c #FFF9A1",
"0X c white",
"qX c None",
/* pixels */
"qXqXqXqXqXqXqXqXqXqXqXqXqXqXqXqXqXqXqXqXqXqXqXqXqXqXqXqXqXqXqXqXqXqXqXqXqXqXqXqXqXqXqXqXqXqXqXqXqXqX",
"qXqXqXqXqXqXqX.X XH.D.~.c.<.b <.qXqXqXqXqXqXqXqXqXqXqXqXqXqXqXqXqXqXqXqXqXqXqXqXqXqXqXqXqXqXqXqXqXqX",
"qXqXqXqXqXqX.XI.P.V.).| ).=.5.<.X.<.qXqXqXqXqXqXqXqXqXqXqXqXqXqXqXqXqXqXqXqXqXqX0XqXqXqXqX0XqXqXqXqX",
"qXqXqXqXqXqX@X].S.t.i.~.b.w.t.q.U n <.t.qXqXqXqXqXqXqXqXqXqXqXqXqXqXqXqXqXqXqX0X( 0XqXqX0X( 0XqXqXqX",
"qXqXqXqXqXY.&X| ~.=.i.*.*.i.=.).{ U s k.4.qXqXqXqXqXqXqXqXqXqXqXqXqXqXqXqXqX0X( ~ ( 0X0X( ~ ( 0XqXqX",
"qXqXqXqX.XY.n.).c.u.t.b.~.c.e.i.~.i.o.<.b 4.4.w.qXqXqXqXqXqXqXqXqXqXqXqXqXqXqX0X( ( ~ ~ ( ( 0XqXqXqX",
"qXqXqX#XI.i.qXqXqXi.>.~.} ).-.c.-.i.~.k.w.4.v q.'.qXqXqXqXqXqXqXqXqXqXqXqXqXqXqX0X~ ( ( ~ 0XqXqXqXqX",
"qXqXqX@Xv.qXqXqXqXqXU.v.~.c.x.N.:.~.} ~.;.l.o.!.} U qXqXqXqXqXqXqXqXqXqXqXqXqXqX0X~ ( ( ~ 0XqXqXqXqX",
"qXqXqXqXqXqXqXqXqXqX.XK.>.y.c.c.g.v.).v.w.t.w.c.!.n <.qXqXqXqXqXqXqXqXqXqXqXqX0X( ( ~ ~ 0X( 0XqXqXqX",
"qXqXqXqXqXqXqXqXqXqXOXOXOXR.R.R.R.R.E.R.v.y.y.7.=.<.v qXqXqXqXqXqXqXqXqXqXqX0X( ~ ( 0X0X( ~ ( 0XqXqX",
"qXqXqXqXqXqXqXqXqX$Xx.a.a.s.s.s.d.a.d.R.R.OXoXc.v.t.5.T qXqXqXqXqXqXqXqXqXqXqX0X( 0XqXqX0X( 0XqXqXqX",
"qXqXqXqXqXqXqX(.^.M.s g l l l u u w y N N d B R.oXB.].| {.qXqXqXqXqXqXqXqXqXqXqX0XqXqXqXqX0XqXqXqXqX",
"qXqXqXqXqX(.^.N.s.P K a i p 6 6 6 + #     * @ N B R.OX%XoX$XOXOXqXqXqXqXqXqXqXqXqXqXqXqXqXqX^ qXqXqX",
"qXqXqXqX(.d.s.s K 4X3XD 6 9 X           < ` ,   6 B l X.a.s.d.d.oXOX}.qXqX( 0XqX0X0X/ qX^ qXqXqXqXqX",
"qXqXqXT.,.j B 0 K ;X:XK 6 #       O & <  .1X..3 + p g p l g l l a.d.s.qX0X~ ( 0X( ( qXqXqXqXqXqXqXqX",
"qXqX(.l j l p d z.` ` A =         . )  .5X7X3X..; 0 N u j j g l l ,.l qXqX0X~ ( ~ qXqX] qXqXqXqXqXqX",
"qX^.a.l #.j i a A.V V A.- o $ # $ , < 3 6X5X4 3 % 7 p i j j l #.a.a.l qXqX( ( ~ 0X0XqXqXqX[ qXqXqXqX",
"qXa.#.#.l p y y i.F.U.S.: * : - 1 ;X1XJ 6X<X5 :X< 0 p y j l a.l #.l qXqX0X~ ( 0X( ( =XqXqXqXqXqXqXqX",
"qXl a.#.#.j y y 7.n.p.3.= X o   ; :X6X5X6X<X6X6X1 q f.j j l l qXqXqXqXqXqX0XqXqXE ! *XqX( qX0X0XqXqX",
"qX#.#.#.#.#.u i <.o.w.c +   .   > ;X6X7X6X6X7X5X1 s s.l #.qXqXqXqXqXqXqXqXqXqXW E qXqX0X~ 0X( ( qXqX",
"qXqX#.l l #.l #.c.W.Z t +   .   > ;X1X6X7X7X6X>X> O.h.#.qXqXqXqXqXqXqXqXqXqXH H qXqXqXqX( ~ ( 0XqXqX",
"qXqXqXqXqXqXqXqX'.( T 0 .   .   & :X6X6X6X6X1X' : :.y.w.qXqXqXqXqXqXqXqXqXG G qXqXqXqXqX0X( ~ qXqXqX",
"qXqXqXqXqXqXqXqXqX!.n 8 @   O   < 3X1X>X>X,X-X2 = qXqXqXqXqXqXqXqXqXqXqXF G qXqXqXqXqXqX( ~ 0X0XqXqX",
"qXqXqXqXqXqXqXqXqX*.1.v 8 @ + @ K >X>X:X' ) R 2.t.qXqXqXqXqXqXqXqXqXqXF F qXqXqXqXqXqX0X~ 0X( ( qXqX",
"qXqXqXqXqXqXqXqXqXqXi.4.c M P d C.;X1X:X:X:X-XA.e.Z.r.F.[.P.XXm./.,X6XQ qXqXqXqXqXqXqXqX0XqXqXqXqXqX",
"qXqXqXqXqXqXqXqXqXqXqX5.X.P ( W.A.6X7X,X1X6X6X).*.n./.).} Q.B.u.A.,X6XqXqXqXqXqXqXqXqXqXqXqXqXqXqXqX",
"qXqXqXqXqXqXqXqXqXqXqXt.2.O.~.p./.4X9X6X5X7X4X/.*.~.} ~.`.z.Z.w.=.qXqXqXqXqXqXqXqXqXqXqXqXqXqXqXqXqX",
"qXqXqXqXqXqXqXqXqXqXqXqX0.!.:.Z.Z.[.2X,X` 2X[.p.l.j.U j.X.<.u.v.'.qXqXqXqXqXqXqXqXqXqXqXqXqXqXqXqXqX",
"qXqXqXqXqXqXqXqXqXqXqXqXU { U r.U.U.&X_.D.@XU.Z.qXqXqXqXqX5.o.).{ qXqXqXqXqXqXqXqXqXqXqXqXqXqXqXqXqX",
"qXqXqXqXqXqXqXqXqXqXqXqXj.U j.1.c.C.J.Y.XXY.P.S.qXqXqXqXqXqX<.0.U qXqXqXqXqXqXqXqXqXqXqXqXqXqXqXqXqX",
"qXqXqXqXqXqXqXqXqXqXqXZ.Z.2.4.t.2.n '.XXXXD.i.qXqXqXqXqXqXqXqXqXqXqXqXqXqXqXqXqXqXqXqXqXqXqXqXqXqXqX",
"qXqXqXqXqXqXqXqXqXqXZ.C.z.C.z.i.o.T { '.>.n <.qXqXqXqXqXqXqXqXqXqXqXqXqXqXqXqXqXqXqXqXqXqXqXqXqXqXqX",
"qXqXqXqXqXqXqXqXD./.].F.Z.Z.D.Z.u.c.~.i.w.m c qXqXqXqXqXqXqXqXqXqXqXqXqXqXqXqXqXqXqXqXqXqXqXqXqXqXqX",
"qXqXqXqXqXqXqXqX XU.D.K.Z.t.r.Z.Z.w.=.t.i.c 4.qXqXqXqXqXqXqXqXqXqXqXqXqXqXqXqXqXqXqXqXqXqXqXqXqXqXqX",
"qXqXqXqXqXqXqX.XXXD.Z.Z.t.i.~.v.n.i.5.t.=.t.i.qXqXqXqXqXqXqXqXqXqXqXqXqXqXqXqXqXqXqXqXqXqXqXqXqXqXqX",
"qXqXqXqXqXqXqXL.H.Z.t.i.=.~.} ~.;.c.<.c.~.i.<.<.qXqXqXqXqXqXqXqXqXqXqXqXqXqXqXqXqXqXqXqXqXqXqXqXqXqX",
"qXqXqXqXqXqXD.H.Z.Z.c.y.w.g.~.i.6.Z.e.~.} ~.:.v.qXqXqXqXqXqXqXqXqXqXqXqXqXqXqXqXqXqXqXqXqXqXqXqXqXqX",
"qXqXqXqXqXqXS.K.Z.t.-.w.9.6.s @.s.9.Z.j.U i.-.w.qXqXqXqXqXqXqXqXqXqXqXqXqXqXqXqXqXqXqXqXqXqXqXqXqXqX",
"qXqXqXqXqXqX XK.t.c.~.g.@.k a h s @.n.l.o.i.~.i.w.qXqXqXqXqXqXqXqXqXqXqXqXqXqXqXqXqXqXqXqXqXqXqXqXqX",
"qXqXqXqXqXqXK.K.;.~.} Q.s Z w Z I h.t.G.O.U { ~.=.qXqXqXqXqXqXqXqXqXqXqXqXqXqXqXqXqXqXqXqXqXqXqXqXqX",
"qXqXqXqXqXqXS.H.u.i.Q.f.f N q Q.{ I =.S.b.5.U v.u.qXqXqXqXqXqXqXqXqXqXqXqXqXqXqXqXqXqXqXqXqXqXqXqXqX",
"qXqXqXqXqXqXL.Z.y.6.X.+.j f u C !.f.6.i.l.4.o.<.t.t.qXqXqXqXqXqXqXqXqXqXqXqXqXqXqXqXqXqXqXqXqXqXqXqX",
"qXqXqXqXqX.XK.Z.7.6.f.+.u h k +.X.@.8.7.i.l.m 4.t.t.qXqXqXqXqXqXqXqXqXqXqXqXqXqXqXqXqXqXqXqXqXqXqXqX",
"qXqXqXqXqXXXK.Z.9.$.#.#.h k 3.6.h.$.+.k t.4.e 7.t.r qXqXqXqXqXqXqXqXqXqXqXqXqXqXqXqXqXqXqXqXqXqXqXqX",
"qXqXqXqXqXP.Z.y.&.f.$.g k &.6.8.k $.f.8.7.7.c m 7.b qXqXqXqXqXqXqXqXqXqXqXqXqXqXqXqXqXqXqXqXqXqXqXqX",
"qXqXqXqXqXK.Z.8.+.X.f z 3.3.6.8.3.%.X.6.4.7.r 8 b c 8 qXqXqXqXqXqXqXqXqXqXqXqXqXqXqXqXqXqXqXqXqXqXqX",
"qXqXqXqX XK.n.&.f.P C 1.4.6.8.k %.g.~.0.1.7.e 8 e e e qXqXqXqXqXqXqXqXqXqXqXqXqXqXqXqXqXqXqXqXqXqXqX",
"qXqXqXqXK.S.v.*.Q.{ ~.o.5.t.@.n *.~.{ !.=.k.8 8 e r e 7.qXqXqXqXqXqXqXqXqXqXqXqXqXqXqXqXqXqXqXqXqXqX",
"qXqXqXZ.H.Z.Z.t.5.!.c.t.t.4.4.6.t.i.~.c.<.t.7.c c 3.c r t.qXqXqXqXqXqXqXqXqXqXqXqXqXqXqXqXqXqXqXqXqX",
"qXqXqXL.H.Z.i.t.t.=.t.t.t.4.t.t.t.u.=.t.t.t.t.t.i.t.t.t.t.qXqXqXqXqXqXqXqXqXqXqXqXqXqXqXqXqXqXqXqXqX"
};
