/* XPM */
static char *result[] = {
/* columns rows colors chars-per-pixel */
"50 50 206 2 ",
"   c #000000",
".  c #0A0A03",
"X  c #01010B",
"o  c #0B0A09",
"O  c #14120A",
"+  c #1B1A0D",
"@  c #03021B",
"#  c #020313",
"$  c #1B1B1B",
"%  c #151415",
"&  c #222200",
"*  c #000023",
"=  c #060525",
"-  c #1D1F29",
";  c #292825",
":  c #363425",
">  c #302E3E",
",  c #2C2A33",
"<  c #413E23",
"1  c #403C39",
"2  c #49462A",
"3  c #4A4736",
"4  c #534F34",
"5  c #5A5633",
"6  c #615D39",
"7  c #00004B",
"8  c #181B4D",
"9  c #000059",
"0  c #1C0E58",
"q  c #10165A",
"w  c #1E115B",
"e  c #101650",
"r  c #0E1449",
"t  c #000064",
"y  c #00006D",
"u  c #000962",
"i  c #151B64",
"p  c #1C1E63",
"a  c #151C6C",
"s  c #17196C",
"d  c #00007B",
"f  c #060776",
"g  c #180078",
"h  c #011670",
"j  c #161D72",
"k  c #191E74",
"l  c #161E7A",
"z  c #1C1E7C",
"x  c #0B1461",
"c  c #200E68",
"v  c #211364",
"b  c #25156E",
"n  c #261475",
"m  c #281776",
"M  c #29177B",
"N  c #221C7B",
"B  c #2A1878",
"V  c #1C226B",
"C  c #1E2363",
"Z  c #1B2373",
"A  c #1A227D",
"S  c #172079",
"D  c #3E3565",
"F  c #242A7B",
"G  c #262578",
"H  c #31237B",
"J  c #322575",
"K  c #352B6E",
"L  c #534F40",
"P  c #47465F",
"I  c #7A5649",
"U  c #785649",
"Y  c #746D43",
"T  c #6B635B",
"R  c #474668",
"E  c #58536E",
"W  c #4E4A74",
"Q  c #55547D",
"!  c #5A547E",
"~  c #5A5576",
"^  c #665F71",
"/  c #547775",
"(  c #626C66",
")  c #896C53",
"_  c yellow",
"`  c #FDFF18",
"'  c #A39D64",
"]  c #B1AA71",
"[  c #B1AB70",
"{  c #C4BC77",
"}  c #AAE95C",
"|  c #D1F143",
" . c #E2E144",
".. c #E1E14B",
"X. c #E3E351",
"o. c #CBC37D",
"O. c #020085",
"+. c #080086",
"@. c #03008F",
"#. c #080089",
"$. c #1B0085",
"%. c #1C1B83",
"&. c #0E0093",
"*. c #000095",
"=. c #140093",
"-. c #1B0095",
";. c #26078A",
":. c #2A1584",
">. c #251C85",
",. c #2C1984",
"<. c #2C148C",
"1. c #261B8A",
"2. c #2C1B8D",
"3. c #301F84",
"4. c #301B8F",
"5. c #230093",
"6. c #320D9A",
"7. c #2E1691",
"8. c #2F1892",
"9. c #311B92",
"0. c #331797",
"q. c #1B2481",
"w. c #1B2681",
"e. c #242383",
"r. c #2B2782",
"t. c #222A82",
"y. c #2C248B",
"u. c #242A88",
"i. c #2B2985",
"p. c #332484",
"a. c #3D2E86",
"s. c #34258E",
"d. c #3D2C8E",
"f. c #2C3387",
"g. c #373689",
"h. c #362492",
"j. c #382693",
"k. c #352995",
"l. c #3B2B93",
"z. c #3B239C",
"x. c #3A3696",
"c. c #3614A0",
"v. c #3620A0",
"b. c #433784",
"n. c #422E9B",
"m. c #402E90",
"M. c #4E3F92",
"N. c #45319C",
"B. c #48359D",
"V. c #4B3A9D",
"C. c #433492",
"Z. c #4632A0",
"A. c #4834A1",
"S. c #4D39A5",
"D. c #513DA4",
"F. c #523EA8",
"G. c #442AA4",
"H. c #3242A7",
"J. c #4B4388",
"K. c #514887",
"L. c #565482",
"P. c #5A5482",
"I. c #5C548D",
"U. c #5D5880",
"Y. c #494B96",
"T. c #564896",
"R. c #4D5297",
"E. c #5D5591",
"W. c #56559B",
"Q. c #635B88",
"!. c #675D98",
"~. c #6E6498",
"^. c #6E658D",
"/. c #414EA5",
"(. c #5644A5",
"). c #5D4CA9",
"_. c #5745A7",
"`. c #4551A5",
"'. c #4954A6",
"]. c #4855A8",
"[. c #6555A7",
"{. c #6D5EB1",
"}. c #5A63A8",
"|. c #6A67A3",
" X c #7468A4",
".X c #49858A",
"XX c #1CB2C7",
"oX c #D6CE89",
"OX c #DED58B",
"+X c #DCD387",
"@X c #E0D78C",
"#X c #E4DA8C",
"$X c #E2DA94",
"%X c #F7DC82",
"&X c #E9E08E",
"*X c #EBE291",
"=X c #EBE299",
"-X c #F0E797",
";X c #F4EB96",
":X c #F9EF99",
">X c #F3E999",
",X c #FDF39C",
"<X c #FFF99D",
"1X c #FEE286",
"2X c #FFF9A0",
"3X c None",
/* pixels */
"3X3X3X3X3X3X3X3X3X3X3X3X3X3X3X3X3X3X3X3X3X3X3X3X3X3X3X3X3X3X3X3X3X3X3X3X3X3X3X3X3X3X3X3X3X3X3X3X3X3X",
"3X3X3X3X3X3X3X3X3X3X3X3X3X3X3X3X3X3X3X3X3X3X3X3X3X3X3X3X3X3X3X3X3X3X,.m ,.h.I.V.N._.).3X3X3X3X3X3X3X",
"3X3X3X3X3X3X3X3X3X3X3X3X3X3X3X3X3X3X3X3X3X3X3X3X3X3X3X3X3X3X3X3X:.+.:.3.=.I.X.E.c.D.F.).3X3X3X3X3X3X",
"3X3X3X3X3X3X3X3X3X3X3X3X3X3X3X3X3X3X3X3X3X3X3X3X3X3X3X3X3X3X9.:.H P.p.7.7.l.I.h.7.B.!.).3X3X3X3X3X3X",
"3X3X3X3X3X3X3X3X3X3X3X3X3X3X3X3X3X3X3X3X3X3X3X3X3X3X3X3X3X,.p.g Q ..I.=.h.=.&.9.-.I.X. X_.3X3X3X3X3X",
"3X3X3X3X3X3X3X3X3X3X3X3X3X3X3X3X3X3X3X3X3X3X3X3X3X3X7.,.,.M ,.@.h.E.h.<.h.I.l.8.0.h.I.l.F.).3X3X3X3X",
"3X3X3X3X3X3X3X3X3X3X3X3X3X3X3X3X3X3X3X3X3X3X3X3X3XQ.s.n ,.<.h.I.h.=.j.=.I...E.-.h.3X3X3Xj.A.{.3X3X3X",
"3X3X3X3X3X3X3X3X3X3X3X3X3X3X3X3X3X3X3X3X3X3X3X3X! ..Q +.l.=.I...I.-.g.f.h.I.l.(.3X3X3X3X3Xl.[.3X3X3X",
"3X3X3X3X3X3X3X3X3X3X3X3X3X3X3X3X3X3X3X3X3X3X3X:.H P.h.7.8.7.j.I.x.h.k.k.h.-.Z.).3X3X3X3X3X3X3X3X3X3X",
"3X3X3X3X3X3X3X3X3X3X3X3X3X3X3X3X3X3X3X3X3X3X3Xm ,.=.7.h.h.k./.H.H.`./././.`.`.].3X3X3X3X3X3X3X3X3X3X",
"3X3X3X3X3X3X3X3X3X3X3X3X3X3X3X3X3X3X3X3X3X3XE r.9.h.k./.`.`.`.f.A t.t.w.t.t.q.f.}.3X3X3X3X3X3X3X3X3X",
"3X3X3X3X3X3X3X3X3X3X3X3X3X3X3X3X3X3X3X3X3XQ.X.~.v.`./.F h V V x q a a A l A l d x.R.W.3X3X3X3X3X3X3X",
"3X3X3X_ 3X3X3X3X3X3X3X3X3X3X3X3X3X3X].].}.].|.].Y.F C = :   o % @ r 8 e V a C W Q t.f.R.W.3X3X3X3X3X",
"3X3X3X3X3X` 3X` 3X3X3X3X3X3X3X`.].].f.w.w.w.O.A Z q   2 [ 4       X X # 8 7 P -X-XR d t.w.R.3X3X3X3X",
"3X3X3X3X3X3X3X3X3X3X3X3X3X3X3Xw.u.w.A S l S V Z V @ 5 o.#Xo.4 : +       % 7 R #XOXR u F Z l Y.3X3X3X",
"3X3X3X3X3X3X} 3X3X3X3X3X3X3X3XA A A S S j Z V Z u : o.;X,X:Xo.' +   o   . * K ] ] b.h V A a S R.3X3X",
"3X3X3X3X| 3X3X3X3X3X3X3X3X3X3XA w.w.w.A j Z a i x ; 5 6 :X:X5 4 2 $ $ $ + , M.D D M.v V Z A S t.Y.3X",
"3X3X3X3X3X3X3XXX.X3X3X3X3X3X3X3XA w.A w.A j i V 9 4 #XY %X:XY *XOX3 - , ; > V.D.V.j.i i j A A q.A 3X",
"3X3X3X3X3X3X3X.X/ / 3X3X3X3X3X3X3X3X3XA A Z j F y 3 :X:X1X,X:X<X@X<   + . = M j.l.2.i i j A w.w.A 3X",
"3X3X3X3X3X3X3X3X3X/ ( 3X3X3X3X3X3X3X3X3X3XA %.F d 3 :X2X,X,X<X,X@X<   O   @ B <.&.,.a a A q.q.q.w.3X",
"3X3X3X3X3X3X3X3X3X3XT T 3X3X3X3X3X3X3X3X3X3Xq.u.;.> OX2X,X<X,X*X+X<   O   @ c H P.s.A A A A A A 3X3X",
"3X3X3X3X3X3X3X3X3X3X3XU I 3X3X3X3X3X3X3X3X3X7.h.;.: { *X,X,X,X,X#X<   O   o 9 E  .! 3X3X3X3X3X3X3X3X",
"3X3X3X3X3X3X3X3X3X3X3X3XI I 3X3X3X3X3X3X3X3X3X3X3X= 4 oX#X@X#X*X-X3   &   = 0 H ! 3X3X3X3X3X3X3X3X3X",
"3X3X3X3X3X3X3X3X3X3X3X3X3XI I 3X3X3X3X3X3X3X3X3X3X7.;.^ ] { #X#XOXW * @ = w m <.&.3X3X3X3X3X3X3X3X3X",
"3X3X3X3X3X3X3X3X3X3X3X3X3X3X) :X$XT.n._.(.~.V.6.N.5.K.oX#X#X#X#XOXJ.g E b m ,.9.3X3X3X3X3X3X3X3X3X3X",
"3X3X3X3X3X3X3X3X3X3X3X3X3X3X3X<XOXT.0.v.L...Q.T.C.=.T.:X<X#X#X<X:XM.W  .E +.p.3X3X3X3X3X3X3X3X3X3X3X",
"3X3X3X3X3X3X3X3X3X3X3X3X3X3X3X3X3X=.0.l.a.J.I...I.*.E.>X2X>X,X<X>XT.z.I.$.:.4.3X3X3X3X3X3X3X3X3X3X3X",
"3X3X3X3X3X3X3X3X3X3X3X3X3X3X3X3X3XI.j.9.,.@.p.! p.l.z.~.=X] $X>X~.n.N.5.! p.3X3X3X3X3X3X3X3X3X3X3X3X",
"3X3X3X3X3X3X3X3X3X3X3X3X3X3X3X3X3X .!.+.p.3X3X3X3X3XN.D.{.V.T. XV.(.0.Q. .! 3X3X3X3X3X3X3X3X3X3X3X3X",
"3X3X3X3X3X3X3X3X3X3X3X3X3X3X3X3X3X! p.:.3X3X3X3X3X3XN.S.D._.F.G.M.j.<.H P.p.3X3X3X3X3X3X3X3X3X3X3X3X",
"3X3X3X3X3X3X3X3X3X3X3X3X3X3X3X3X3X3X3X3X3X3X3X3X3X3X3X9.V.(.).Q.J 7.7.:.;.N.n.3X3X3X3X3X3X3X3X3X3X3X",
"3X3X3X3X3X3X3X3X3X3X3X3X3X3X3X3X3X3X3X3X3X3X3X3X3X3X3X,.H -.!  .E +.j.a.b.b.b.V.3X3X3X3X3X3X3X3X3X3X",
"3X3X3X3X3X3X3X3X3X3X3X3X3X3X3X3X3X3X3X3X3X3X3X3X3X3X3XB M <.h.I.h.9.N.V.N.N.T.W.T.N.3X3X3X3X3X3X3X3X",
"3X3X3X3X3X3X3X3X3X3X3X3X3X3X3X3X3X3X3X3X3X3X3X3X3X3X3X,.m s.7.=.9.n.n.6.9.N.N.V.(._.3X3X3X3X3X3X3X3X",
"3X3X3X3X3X3X3X3X3X3X3X3X3X3X3X3X3X3X3X3X3X3X3X3X3X3X3X9.7.-.8.3.4.n.l.I.h.0.n.n.N._.).3X3X3X3X3X3X3X",
"3X3X3X3X3X3X3X3X3X3X3X3X3X3X3X3X3X3X3X3X3X3X3X3X3X3X,.,.s.I.s.,.l.-.I.X.I.=.j.h.N.N.V.3X3X3X3X3X3X3X",
"3X3X3X3X3X3X3X3X3X3X3X3X3X3X3X3X3X3X3X3X3X3X3X3X3X3Xh.5.I...I.6.N.1.s.I.s.7.8.j.N.N.N.V.3X3X3X3X3X3X",
"3X3X3X3X3X3X3X3X3X3X3X3X3X3X3X3X3X3X3X3X3X3X3X3X3X3X8.=.h.L.p.n.y.e.>.d >.2.8.=.0.N.B.N.3X3X3X3X3X3X",
"3X3X3X3X3X3X3X3X3X3X3X3X3X3X3X3X3X3X3X3X3X3X3X3X3X7.j.I.h.O.d.x.%.d l p z %.p.I.s.9.A._.3X3X3X3X3X3X",
"3X3X3X3X3X3X3X3X3X3X3X3X3X3X3X3X3X3X3X3X3X3X3X3X3X=.E...! $.C.9.p.Q G s G d L...I.-.A.B.3X3X3X3X3X3X",
"3X3X3X3X3X3X3X3X3X3X3X3X3X3X3X3X3X3X3X3X3X3X3X3X3X8.h.~ p.m.V.=.Q  .Q y Z j F P.s.7.N.N.3X3X3X3X3X3X",
"3X3X3X3X3X3X3X3X3X3X3X3X3X3X3X3X3X3X3X3X3X3X3X3X9.0.,.+.,.m.9.1.r.L.F i j k %.O.2.9.N.S.3X3X3X3X3X3X",
"3X3X3X3X3X3X3X3X3X3X3X3X3X3X3X3X3X3X3X3X3X3X3X3X2.0.,.m a.9.8.1.%.O.>.z s s A u.2.9.N.B.).3X3X3X3X3X",
"3X3X3X3X3X3X3X3X3X3X3X3X3X3X3X3X3X3X3X3X3X3X3X3Xb 9.4.v 3.9.N z >.i.1.,.N k A %.q.2.n.A._.3X3X3X3X3X",
"3X3X3X3X3X3X3X3X3X3X3X3X3X3X3X3X3X3X3X3X3X3X3X3XM 4.m b 2.2.>.r.q.N 2.>.>.z k A t.1.9.Z.V.3X3X3X3X3X",
"3X3X3X3X3X3X3X3X3X3X3X3X3X3X3X3X3X3X3X3X3X3X3Xw n M v n 8.,.2.O.1.,.>.2.,.1.z k O.%.y.Z.B.3X3X3X3X3X",
"3X3X3X3X3X3X3X3X3X3X3X3X3X3X3X3X3X3X3X3X3X3X3Xv v v 0 w 4.,.p.L.s.1.N 1.2.,.1.G ~ e.1.x.A._.3X3X3X3X",
"3X3X3X3X3X3X3X3X3X3X3X3X3X3X3X3X3X3X3X3X3X3X,.v b v 0 w s.=.! ..I.@.G >.4.3.+.I. .L.@.l.N.B.3X3X3X3X",
"3X3X3X3X3X3X3X3X3X3X3X3X3X3X3X3X3X3X3X3X3X8.n n M m m 2.9.,.j.I.h.7.2.,.,.9.7.h.! r.9.n.N.A.N.3X3X3X",
"3X3X3X3X3X3X3X3X3X3X3X3X3X3X3X3X3X3X3X3X3X9.9.2.9.9.2.0.9.9.7.=.8.9.9.9.,.9.9.7.=.8.9.9.n.A.V.3X3X3X"
};
